<?xml version="1.0" encoding="utf-8"?>
<!-- Generator: Adobe Illustrator 19.2.1, SVG Export Plug-In . SVG Version: 6.00 Build 0)  -->
<svg version="1.1" id="Laag_1" xmlns="http://www.w3.org/2000/svg" xmlns:xlink="http://www.w3.org/1999/xlink" x="0px" y="0px"
	 viewBox="0 0 3606.2 2535.1" style="enable-background:new 0 0 3606.2 2535.1;" xml:space="preserve">
<style type="text/css">
	.st0{fill:url(#SVGID_1_);}
	.st1{filter:url(#Adobe_OpacityMaskFilter);}
	.st2{fill:url(#SVGID_3_);}
	.st3{opacity:0.39;mask:url(#SVGID_2_);}
	.st4{fill:#FFFFFF;}
	.st5{filter:url(#Adobe_OpacityMaskFilter_1_);}
	.st6{fill:url(#SVGID_5_);}
	.st7{opacity:0.39;mask:url(#SVGID_4_);}
</style>
<linearGradient id="SVGID_1_" gradientUnits="userSpaceOnUse" x1="3338.3894" y1="2802.8389" x2="267.7753" y2="-267.7753">
	<stop  offset="0" style="stop-color:#189CD8"/>
	<stop  offset="0.4688" style="stop-color:#12A5BD"/>
	<stop  offset="1" style="stop-color:#0BAF9F"/>
</linearGradient>
<rect class="st0" width="3606.2" height="2535.1"/>
<defs>
	<filter id="Adobe_OpacityMaskFilter" filterUnits="userSpaceOnUse" x="-333.3" y="-693.6" width="3497.3" height="4117.2">
		<feColorMatrix  type="matrix" values="1 0 0 0 0  0 1 0 0 0  0 0 1 0 0  0 0 0 1 0"/>
	</filter>
</defs>
<mask maskUnits="userSpaceOnUse" x="-333.3" y="-693.6" width="3497.3" height="4117.2" id="SVGID_2_">
	<g class="st1">
		<linearGradient id="SVGID_3_" gradientUnits="userSpaceOnUse" x1="-364.5972" y1="1384.9867" x2="3112.3845" y2="1384.9867">
			<stop  offset="0" style="stop-color:#FFFFFF"/>
			<stop  offset="1" style="stop-color:#000000"/>
		</linearGradient>
		<rect x="-364.6" y="-564.8" class="st2" width="3477" height="3899.5"/>
	</g>
</mask>
<g class="st3">
	<path class="st4" d="M3139.5-374.8c0.1-0.1,0.2-0.1,0.2-0.2c8.1-76,16.2-152.1,24.3-228.1c-65.8-30.8-132-61-198.7-90.3
		c-0.1-0.1-0.1-0.1-0.2-0.2c-73.7,45.4-147,90.5-219.7,135.2c-66.5-28.9-133.4-57.1-200.8-84.5c-0.1,0-0.2-0.1-0.3-0.1
		c-72.7,45.1-144.8,89.9-216.5,134.4c-67.3-27.1-135-53.4-203.2-79c-0.1,0-0.2-0.1-0.3-0.1c-71.6,44.8-142.7,89.3-213.3,133.5
		c-68.1-25.2-136.6-49.7-205.5-73.5c-0.1,0-0.2-0.1-0.3-0.1c-70.5,44.5-140.6,88.7-210.1,132.5c-68.8-23.4-138.1-46-207.7-67.9
		c-0.1,0-0.2-0.1-0.3-0.1c-69.5,44.2-138.4,88.1-206.9,131.5c-69.6-21.5-139.5-42.3-209.9-62.3c-0.1,0-0.2-0.1-0.3-0.1
		c-68.4,43.9-136.3,87.4-203.8,130.5c-70.3-19.6-141-38.5-212-56.7c-0.1,0-0.2-0.1-0.3-0.1c-67.4,43.5-134.3,86.7-200.7,129.5
		c-71-17.8-142.3-34.8-214.1-51c-0.1,0-0.2-0.1-0.3-0.1C-27.9-198.8-94-155.9-159.6-113.4c-0.2,0.1-0.4,0.2-0.6,0.3
		c6.4,58.3,12.7,116.6,19.1,175c-64.4,41.2-128.4,82.1-191.9,122.5c-0.1,0.1-0.1,0.1-0.2,0.2c7.2,57.4,14.4,114.7,21.6,172.1
		c69.9,17.8,139.5,36.4,208.7,55.7c6.3,58.2,12.7,116.4,19,174.6c-61.9,37.8-123.4,75.3-184.5,112.4c-0.1,0.1-0.1,0.1-0.2,0.2
		c7.2,57.4,14.4,114.7,21.6,172.1c67.5,21.2,134.5,43.2,201.2,65.9c6.3,58.2,12.7,116.4,19,174.6c-59.4,34.4-118.4,68.5-177,102.2
		c-0.1,0.1-0.1,0.1-0.2,0.2c7.2,57.4,14.4,114.7,21.6,172.1c65,24.6,129.6,50,193.7,76c6.3,58.2,12.7,116.4,19,174.6
		c-56.9,31.1-113.4,61.7-169.5,92c-0.1,0-0.1,0.1-0.2,0.1c7.2,57.4,14.4,114.7,21.6,172.1c62.5,28,124.6,56.8,186.2,86.2
		c6.3,58.2,12.7,116.4,19,174.6c-54.4,27.7-108.4,54.9-162,81.8c-0.1,0-0.1,0.1-0.2,0.1c7.2,57.4,14.4,114.7,21.6,172.1
		c60,31.4,119.6,63.6,178.8,96.4c6.3,58.2,12.7,116.4,19,174.6c-51.9,24.3-103.4,48.1-154.6,71.6c0,0-0.1,0.1-0.1,0.1
		c7.2,57.4,14.4,114.7,21.6,172.1c57.7,34.9,115.1,70.5,171.9,106.9c0.1,0.1,0.2,0.1,0.4,0.2c50.4-22,101.1-44.5,152.3-67.4
		c56.6,36.5,112.7,73.7,168.4,111.7c0.1,0.1,0.2,0.1,0.3,0.2c51.1-22.6,102.6-45.6,154.4-69c55.6,38.2,110.7,77.2,165.4,116.8
		c0.1,0.1,0.2,0.1,0.3,0.2c51.8-23.1,104-46.6,156.7-70.6c54.6,39.9,108.7,80.6,162.4,121.9c0.1,0.1,0.2,0.1,0.3,0.2
		c52.6-23.6,105.5-47.7,158.9-72.1c53.6,41.6,106.7,84,159.4,127c0.1,0.1,0.2,0.1,0.3,0.2c53.3-24.1,107.1-48.7,161.2-73.6
		c52.6,43.3,104.6,87.3,156.2,132c0.1,0.1,0.2,0.1,0.2,0.2c54.1-24.6,108.6-49.7,163.5-75.1c51.5,45,102.5,90.7,153.1,137
		c0.1,0.1,0.2,0.1,0.2,0.2c54.9-25.1,110.2-50.7,165.9-76.6c50.4,46.6,100.4,94,149.8,142c0.1,0.1,0.2,0.2,0.2,0.2
		c55.7-25.7,111.8-51.7,168.4-78.1c0-0.1,0.1-0.1,0.1-0.2c7.1-74.8,14.2-149.5,21.3-224.3c57.4-27.4,115.2-55.2,173.4-83.3
		c0.1-0.1,0.1-0.1,0.2-0.2c8.1-76,16.2-152.1,24.3-228.1c-51.2-46.5-103-92.4-155.2-137.6c7.1-74.6,14.2-149.2,21.3-223.8
		c60.2-30.6,120.9-61.5,182.1-92.8c0.1-0.1,0.1-0.1,0.2-0.2c8.1-76,16.2-152.1,24.3-228.1c-54.1-43.4-108.7-86.1-163.8-128.1
		c7.1-74.6,14.2-149.2,21.3-223.8c63.1-33.7,126.7-67.8,190.7-102.3c0.1-0.1,0.1-0.1,0.2-0.2c8.1-76,16.2-152.1,24.3-228.1
		c-57-40.2-114.5-79.8-172.5-118.6c7.1-74.6,14.2-149.2,21.3-223.8c66-36.9,132.4-74.1,199.3-111.7c0.1-0.1,0.1-0.1,0.2-0.2
		c8.1-76,16.2-152.1,24.3-228.1c-59.9-37.1-120.3-73.5-181.1-109.2c7.1-74.6,14.2-149.2,21.3-223.8c68.8-40.1,138.2-80.5,208-121.2
		c0.1-0.1,0.1-0.1,0.2-0.2c8.1-76,16.2-152.1,24.3-228.1c-62.8-33.9-126.1-67.2-189.8-99.7c7.1-74.6,14.2-149.2,21.3-223.8
		C2994.6-287.3,3066.8-330.9,3139.5-374.8z M3162.6-602.3c-8,75.6-16.1,151.1-24.1,226.7c-72.6,43.8-144.6,87.3-216.1,130.5
		c-64.5-31.4-129.4-62-194.7-91.9c6.1-73.5,12.3-146.9,18.4-220.4c72.4-44.6,145.4-89.5,218.8-134.8
		C3031.2-662.9,3097.1-632.9,3162.6-602.3z M2921.6-244c-7.1,74.5-14.1,149-21.2,223.5c-70.6,42.1-140.7,83.9-210.3,125.3
		c-63.5-32-127.4-63.4-191.8-94c5.2-72.4,10.4-144.8,15.6-217.2c47-28.6,94.3-57.3,141.7-86.2c23.7-14.4,47.5-28.9,71.4-43.4
		c7.3,3.4,14.6,6.8,21.9,10.2C2806.9-299,2864.4-271.8,2921.6-244z M267.1-8c7.8,2.1,15.5,4.2,23.3,6.3
		c62.1,16.9,124,34.4,185.5,52.5c3.8,61.5,7.6,123,11.4,184.5c-64.5,40-128.6,79.7-192.1,119c-68.2-21.1-136.9-41.5-205.9-61.1
		c-5.5-59.3-11-118.5-16.5-177.8c42.9-27.2,86-54.5,129.3-82C223.7,19.6,245.4,5.8,267.1-8z M675-74c7.7,2.4,15.5,4.7,23.2,7.1
		c61.3,18.5,122.3,37.7,183,57.4c2.1,63.7,4.1,127.4,6.2,191.1C821.9,222,756.9,262,692.3,301.7c-67.5-22.9-135.4-45.1-203.7-66.6
		c-3.8-61.5-7.6-123-11.4-184.5c43.6-27.4,87.5-55,131.5-82.8C630.8-46.1,652.9-60.1,675-74z M1083.8-135.5
		c7.8,2.5,15.6,5.1,23.3,7.7c60.8,20.2,121.3,40.9,181.4,62.2c0.3,65.9,0.6,131.8,0.9,197.8c-66.7,40.8-132.9,81.2-198.7,121.3
		c-67-24.8-134.3-48.8-202.1-72.1c-2.1-63.7-4.1-127.4-6.2-191.2c44.4-27.7,89-55.6,133.8-83.6
		C1038.7-107.3,1061.2-121.4,1083.8-135.5z M1493.4-192.4c7.6,2.8,15.2,5.5,22.8,8.3c60,21.8,119.8,44.2,179.2,67.2
		c-1.5,68.1-3,136.2-4.5,204.3c-67.5,41.1-134.5,81.9-201.1,122.3c-66-26.6-132.3-52.5-199.1-77.6c-0.3-65.9-0.6-131.8-0.9-197.8
		c44.9-27.9,90.1-56,135.4-84.2C1447.9-164.1,1470.6-178.2,1493.4-192.4z M1903.8-244.8c7.6,2.9,15.1,5.8,22.7,8.8
		c59.6,23.5,118.9,47.5,177.8,72.2c-3.3,70.3-6.7,140.5-10,210.8c-68.7,41.5-137,82.6-204.8,123.4c-65.4-28.4-131.2-56.1-197.4-83
		c1.5-68.1,3-136.2,4.5-204.3c45.7-28.1,91.6-56.4,137.7-84.9C1857.5-216.2,1880.6-230.5,1903.8-244.8z M2315-292.6
		c7.5,3.2,15,6.3,22.5,9.5c58.7,25.1,117.1,50.7,175.1,76.9c-5.2,72.4-10.4,144.8-15.6,217.2c-69.6,41.8-138.6,83.2-207.2,124.3
		c-64.3-30.2-129.1-59.8-194.3-88.6c3.3-70.3,6.7-140.5,10-210.8c46.3-28.3,92.7-56.9,139.4-85.5
		C2268.3-263.9,2291.6-278.2,2315-292.6z M2465.8,447.7c-5.2,72.4-10.4,144.8-15.6,217.2c-66.7,38.6-133,76.8-198.8,114.7
		c-61.5-33.4-123.5-66.2-185.9-98.2c3.3-70.3,6.7-140.5,10-210.8c66.7-39.3,133.8-79,201.4-119c27.2,13.4,54.3,27,81.3,40.7
		C2394.2,410.5,2430.1,429,2465.8,447.7z M2419,1101.5c-5.2,72.4-10.4,144.8-15.6,217.2c-63.9,35.4-127.4,70.5-190.4,105.1
		c-58.7-36.6-118-72.6-177.6-107.8c3.3-70.3,6.7-140.5,10-210.8c63.9-36.1,128.3-72.5,193.1-109.4c26,14.8,51.9,29.7,77.7,44.8
		C2350.6,1060.7,2384.9,1081,2419,1101.5z M2372.1,1755.4c-5.2,72.4-10.4,144.8-15.6,217.2c-61.1,32.2-121.8,64.1-182,95.6
		c-56-39.9-112.4-79-169.3-117.5c3.3-70.3,6.7-140.5,10-210.8c61.1-32.9,122.7-66.1,184.8-99.7c24.8,16.2,49.6,32.5,74.2,49
		C2307.1,1711,2339.7,1733.1,2372.1,1755.4z M2325.3,2409.2c-5.2,72.4-10.4,144.8-15.6,217.2c-58.3,29-116.2,57.7-173.6,86
		c-53.2-43.1-106.8-85.4-161-127.1c3.3-70.3,6.7-140.5,10-210.8c58.4-29.7,117.2-59.7,176.4-90.1c23.6,17.5,47.1,35.2,70.5,53
		C2263.4,2361.1,2294.4,2385.1,2325.3,2409.2z M435.6,2172.8c-4.6-60.4-9.3-120.8-13.9-181.2c56-29.2,112.3-58.9,169.1-88.9
		c60.6,31.5,120.7,63.7,180.4,96.6c2.9,62.6,5.9,125.2,8.8,187.8c-55.9,28.6-111.5,56.8-166.6,84.6c-25.2-14.4-50.5-28.7-75.8-42.9
		C503.8,2210,469.8,2191.3,435.6,2172.8z M393.7,1627.3c-4.6-60.4-9.3-120.8-13.9-181.2c58.5-32.6,117.4-65.6,176.8-98.9
		c63.2,28.1,125.9,57,188.2,86.6c2.9,62.6,5.9,125.2,8.8,187.8c-58.5,31.9-116.6,63.4-174.3,94.6c-26.3-13-52.8-25.9-79.3-38.7
		C464.7,1660.6,429.2,1643.9,393.7,1627.3z M351.7,1081.9c-4.6-60.4-9.3-120.8-13.9-181.2c61-35.9,122.5-72.2,184.5-108.9
		c65.7,24.8,131,50.3,195.9,76.6c2.9,62.6,5.9,125.2,8.8,187.8c-61.1,35.2-121.8,70.1-182.1,104.6c-27.4-11.6-54.9-23-82.4-34.3
		C425.7,1111.4,388.8,1096.5,351.7,1081.9z M309.8,536.4c-4.6-60.4-9.3-120.8-13.9-181.2c63.6-39.3,127.6-78.9,192.1-119
		c68.3,21.5,136.2,43.7,203.7,66.6c2.9,62.6,5.9,125.2,8.8,187.8c-63.7,38.6-127,76.8-189.8,114.6c-28.5-10.1-57.1-20.2-85.7-30
		C386.7,562.1,348.3,549.1,309.8,536.4z M511.4,606.1c62.9-37.8,126.2-76,190-114.6c28.5,10.3,56.9,20.8,85.3,31.4
		c37.8,14.1,75.5,28.5,113.1,43c2.1,63.7,4.1,127.4,6.2,191.1c-62.9,37.1-125.3,73.8-187.3,110.2c-64.9-26.3-130.2-51.8-196-76.6
		C519,729.1,515.2,667.6,511.4,606.1z M2074.3,470.7c-3.3,70.3-6.7,140.5-10,210.8c-66,38.3-131.5,76.1-196.5,113.7
		c-62.6-31.7-125.7-62.6-189.2-92.8c1.5-68.1,3-136.2,4.5-204.3c65.8-39,132.1-78.3,198.8-118c27.6,12.6,55.2,25.4,82.7,38.3
		C2001.3,435.5,2037.9,453,2074.3,470.7z M2044.2,1105.2c-3.3,70.3-6.7,140.5-10,210.8c-63.2,35-125.9,69.7-188.2,104
		c-59.9-34.9-120.2-69.1-181-102.6c1.5-68.1,3-136.2,4.5-204.3c63.1-35.7,126.6-71.8,190.6-108.2c26.5,14,52.9,28.2,79.2,42.4
		C1974.5,1066.4,2009.4,1085.7,2044.2,1105.2z M2014.2,1739.8c-3.3,70.3-6.7,140.5-10,210.8c-60.4,31.8-120.4,63.2-179.9,94.2
		c-57.1-38.1-114.7-75.6-172.7-112.3c1.5-68.1,3-136.2,4.5-204.3c60.4-32.4,121.2-65.3,182.4-98.5c25.3,15.4,50.6,31,75.8,46.7
		C1947.7,1697.3,1981,1718.4,2014.2,1739.8z M754.7,1621.7c-2.9-62.6-5.9-125.2-8.8-187.8c59.6-33,119.6-66.4,180-100.2
		c62.5,29.9,124.6,60.6,186.2,92c1.2,64.8,2.4,129.6,3.6,194.5c-59.5,32.4-118.6,64.3-177.3,95.9c-26.1-13.8-52.3-27.5-78.6-41
		C824.9,1657,789.9,1639.2,754.7,1621.7z M728.2,1056.1c-2.9-62.6-5.9-125.2-8.8-187.8c62.2-36.4,124.8-73.1,187.9-110.2
		c65.1,26.6,129.9,53.9,194.1,82c1.2,64.8,2.4,129.6,3.6,194.5c-62.2,35.7-123.9,70.9-185.2,105.8c-27.2-12.4-54.5-24.6-81.9-36.7
		C801.5,1087.6,764.9,1071.8,728.2,1056.1z M1837.6,1628.7c-61.2,33.2-121.9,66-182.1,98.5c-25.2-15.3-50.5-30.5-75.9-45.5
		c-33.8-20-67.7-39.8-101.7-59.3c0.6-67,1.2-134,1.8-201c61.2-33.9,122.8-68.1,184.8-102.7c60.6,33.5,120.7,67.7,180.4,102.6
		C1842.4,1490.4,1840,1559.5,1837.6,1628.7z M1668.4,1113.1c-1.5,68.1-3,136.2-4.5,204.3c-62.1,34.6-123.7,68.9-184.9,102.7
		c-60.6-33.1-121.6-65.6-183-97.3c-0.3-65.9-0.6-131.8-0.9-197.8c62.1-35.3,124.6-71,187.6-107c26.7,13.3,53.3,26.7,79.9,40.2
		C1598,1076.3,1633.3,1094.6,1668.4,1113.1z M1482.1,1017.1c-63,36.1-125.6,71.7-187.7,107c-26.7-13.1-53.4-26.1-80.3-39
		c-35.8-17.1-71.7-34-107.8-50.7c-1.2-64.8-2.4-129.7-3.5-194.5c62.9-36.7,126.3-73.9,190.1-111.3c64.1,28.4,127.8,57.6,191.1,87.5
		C1483.2,883.1,1482.6,950.1,1482.1,1017.1z M919.7,1141.3c61.3-34.9,123-70.2,185.2-105.8c27.2,12.5,54.3,25.1,81.4,37.9
		c36,17,71.9,34.3,107.7,51.8c0.3,65.9,0.6,131.8,0.9,197.8c-61.4,34.2-122.3,68.1-182.7,101.5c-61.6-31.4-123.7-62-186.2-91.9
		C923.8,1268.8,921.8,1205,919.7,1141.3z M1116.9,1620c-1.2-64.8-2.4-129.7-3.5-194.5c60.3-33.5,121-67.3,182.1-101.5
		c61.5,31.7,122.5,64.1,183,97.3c-0.6,67-1.2,134-1.8,201c-60.3,32.8-120.2,65.2-179.7,97.2c-25.6-14.6-51.3-29-77-43.3
		C1185.8,1657.3,1151.4,1638.6,1116.9,1620z M1859.3,1003.9c-63.9,36.4-127.3,72.5-190.3,108.2c-26.3-13.9-52.8-27.6-79.3-41.3
		c-35.3-18.2-70.8-36.1-106.5-53.8c0.6-67,1.2-134,1.8-201c63.9-37.1,128.2-74.6,193-112.5c63.3,30.2,126.1,61.2,188.5,92.8
		C1864.1,865.6,1861.7,934.7,1859.3,1003.9z M938.3,1716.9c58.7-31.6,117.8-63.5,177.3-95.9c26.1,13.9,52.2,28,78.1,42.2
		c34.5,18.9,68.8,38,102.9,57.3c0.3,65.9,0.6,131.8,0.9,197.8c-58.7,30.9-116.9,61.5-174.7,91.6c-59-34.7-118.4-68.6-178.3-101.9
		C942.4,1844.3,940.4,1780.6,938.3,1716.9z M1297.8,1720.5c59.4-32,119.3-64.4,179.6-97.2c25.6,14.7,51.1,29.5,76.6,44.5
		c33.8,19.9,67.5,40,101,60.3c-1.5,68.1-3,136.2-4.5,204.3c-59.4,31.4-118.3,62.4-176.7,93c-57.9-36.4-116.2-72.1-175-107.1
		C1298.4,1852.4,1298.1,1786.5,1297.8,1720.5z M1681.9,498.1c-1.5,68.1-3,136.2-4.5,204.3c-64.8,37.9-129.1,75.4-193,112.5
		c-63.3-29.9-127-59-191.1-87.5c-0.3-65.9-0.6-131.8-0.9-197.8c64.7-38.6,130-77.5,195.6-116.8c27.9,11.9,55.6,23.9,83.4,36
		C1608.4,465,1645.2,481.4,1681.9,498.1z M1291.2,529.8c0.3,65.9,0.6,131.8,0.9,197.8c-64,37.5-127.6,74.6-190.7,111.4
		c-64.3-28.1-129-55.4-194.2-82c-2.1-63.7-4.1-127.4-6.2-191.2C965,527.6,1029.4,489,1094.2,450c28.3,11.1,56.6,22.3,84.8,33.7
		C1216.6,498.8,1254,514.2,1291.2,529.8z M545.7,1161.6c60.3-34.5,121-69.3,182.2-104.6c27.4,11.7,54.7,23.6,82,35.6
		c36.3,16,72.5,32.2,108.6,48.7c2.1,63.7,4.1,127.4,6.2,191.1c-60.3,33.8-120.1,67.2-179.4,100.2c-62.3-29.6-125-58.5-188.2-86.6
		C553.3,1284.6,549.5,1223.1,545.7,1161.6z M579.9,1717.2c57.7-31.1,115.9-62.7,174.5-94.6c26.3,13.2,52.6,26.5,78.8,40
		c34.8,17.9,69.5,36,104,54.3c2.1,63.7,4.1,127.4,6.2,191.1c-57.6,30.5-114.8,60.6-171.6,90.3c-59.7-32.9-119.9-65.1-180.5-96.6
		C587.5,1840.2,583.7,1778.7,579.9,1717.2z M2199.6,1639.1c-62.2,33.6-123.9,66.9-185.2,99.7c-24.9-16-49.9-32-75.1-47.7
		c-33.4-21-66.9-41.8-100.6-62.3c2.4-69.2,4.8-138.4,7.2-207.5c62.3-34.3,125-68.9,188.2-103.9c59.9,35.2,119.3,71.2,178.2,107.8
		C2208.1,1496.4,2203.9,1567.7,2199.6,1639.1z M2238,994.8c-65,36.8-129.5,73.3-193.5,109.4c-26.1-14.6-52.2-29.1-78.5-43.5
		c-35-19.2-70.2-38.1-105.5-56.9c2.4-69.2,4.8-138.4,7.2-207.5c65-37.5,130.5-75.4,196.5-113.7c62.6,32,124.8,64.7,186.5,98.2
		C2246.5,852.2,2242.3,923.5,2238,994.8z M2276.4,350.6c-67.8,40-135.1,79.7-201.9,119c-27.3-13.2-54.6-26.3-82-39.3
		c-36.6-17.3-73.3-34.4-110.2-51.3c2.4-69.2,4.8-138.4,7.2-207.5c67.8-40.8,136-81.9,204.7-123.4c65.4,28.8,130.4,58.3,194.9,88.5
		C2284.9,208,2280.7,279.3,2276.4,350.6z M1881,379.1c-66.6,39.7-132.8,79-198.5,117.9c-27.5-12.5-55.1-24.9-82.8-37.1
		c-36.9-16.3-73.9-32.4-111.1-48.2c0.6-67,1.2-134,1.8-201c66.5-40.4,133.6-81.2,201.1-122.3c66,27,131.6,54.7,196.7,83.1
		C1885.8,240.8,1883.4,310,1881,379.1z M1487.4,411.9c-65.7,39.3-131,78.3-195.8,116.9c-27.8-11.7-55.7-23.3-83.7-34.8
		c-37.3-15.3-74.8-30.3-112.4-45.1c-1.2-64.8-2.4-129.7-3.5-194.5c65.6-40,131.6-80.4,198.1-121.2c66.8,25.2,133.2,51,199.1,77.7
		C1488.6,277.9,1488,344.9,1487.4,411.9z M1094.3,449.1c-64.8,39-129.2,77.6-193.1,115.8c-28.3-10.9-56.7-21.7-85.2-32.4
		c-37.9-14.2-76-28.2-114.2-41.9c-2.9-62.6-5.9-125.2-8.8-187.8C757.7,263,823,223,888.7,182.5c67.8,23.3,135.1,47.3,202.1,72.1
		C1091.9,319.4,1093.1,384.3,1094.3,449.1z M781.1,2187.2c-2.9-62.6-5.9-125.2-8.8-187.8c57-29.7,114.4-59.8,172.2-90.2
		c59.9,33.3,119.3,67.2,178.3,101.9c1.2,64.8,2.4,129.6,3.6,194.5c-56.9,29.1-113.3,57.7-169.4,86c-25-15.2-50-30.3-75.1-45.2
		C848.5,2226.4,814.9,2206.7,781.1,2187.2z M1127.5,2205.6c-1.2-64.8-2.4-129.7-3.5-194.5c57.6-30.2,115.7-60.7,174.2-91.6
		c58.8,35,117.1,70.7,175,107.1c-0.6,67-1.2,134-1.8,201c-57.6,29.5-114.9,58.6-171.6,87.4c-24.4-15.9-48.9-31.7-73.4-47.4
		C1193.5,2246.7,1160.6,2226,1127.5,2205.6z M1472.4,2227.7c0.6-67,1.2-134,1.8-201c58.5-30.6,117.4-61.6,176.7-93
		c57.9,36.7,115.2,74.2,172.2,112.3c-2.4,69.2-4.8,138.3-7.2,207.5c-58.4,30-116.4,59.6-174,88.8c-24-16.7-48.1-33.2-72.3-49.6
		C1537.4,2270.7,1505,2249.1,1472.4,2227.7z M1817,2253.6c2.4-69.2,4.8-138.4,7.2-207.5c59.5-31,119.5-62.4,179.9-94.2
		c57.1,38.5,113.7,77.6,169.8,117.5c-4.3,71.3-8.5,142.7-12.8,214c-59.4,30.4-118.3,60.4-176.8,90.1c-23.7-17.4-47.5-34.7-71.3-51.8
		C1881.2,2298.7,1849.2,2276,1817,2253.6z M614.2,2272.7c55.2-27.8,110.7-56,166.7-84.6c25.2,14.6,50.3,29.3,75.3,44.1
		c33.4,19.8,66.6,39.8,99.7,60.1c2.1,63.7,4.1,127.4,6.2,191.1c-55,27.2-109.6,53.9-163.8,80.3c-57.1-36.2-114.7-71.8-172.7-106.6
		C621.7,2395.7,617.9,2334.2,614.2,2272.7z M956.9,2292.4c56-28.3,112.5-56.9,169.4-86c24.9,15.3,49.8,30.8,74.6,46.4
		c33,20.8,65.8,41.8,98.5,63.1c0.3,65.9,0.6,131.8,0.9,197.8c-56,27.6-111.6,54.9-166.7,81.7c-56.3-38-113.1-75.2-170.4-111.8
		C961.1,2419.8,959,2356.1,956.9,2292.4z M1300.5,2316c56.7-28.7,113.9-57.9,171.5-87.4c24.4,16.1,48.7,32.3,73,48.6
		c32.3,21.8,64.5,43.8,96.5,66c-1.5,68.1-3,136.2-4.5,204.3c-56.6,28.1-112.8,55.9-168.6,83.2c-55.2-39.7-110.8-78.6-167-116.9
		C1301,2447.8,1300.7,2381.9,1300.5,2316z M1642.5,2343.3c57.6-29.2,115.7-58.8,174.2-88.7c24.1,16.8,48.1,33.7,72.1,50.8
		c31.9,22.8,63.7,45.8,95.3,69c-3.3,70.3-6.7,140.5-10,210.8c-57.6,28.6-114.9,56.7-171.6,84.5c-54.4-41.4-109.2-82.1-164.5-122.1
		C1639.5,2479.5,1641,2411.4,1642.5,2343.3z M122.4,650.7c61.9-37.4,124.2-75.2,186.9-113.4c28.8,9.5,57.6,19.2,86.3,29
		c38.3,13.1,76.5,26.4,114.6,39.9c3.8,61.5,7.6,123,11.4,184.5c-61.9,36.7-123.4,73-184.5,109c-65.7-24.4-131.8-48.2-198.3-71.1
		C133.4,769.3,127.9,710,122.4,650.7z M171.9,1186.1c59.3-34,119.1-68.5,179.3-103.3c27.8,11,55.4,22,83,33.3
		c36.9,15,73.6,30.2,110.2,45.7c3.8,61.5,7.6,123,11.4,184.5c-59.4,33.4-118.3,66.3-176.8,98.9c-63.1-27.8-126.7-54.9-190.7-81.2
		C182.9,1304.6,177.4,1245.3,171.9,1186.1z M221.5,1721.4c56.8-30.7,114-61.7,171.7-93.2c26.7,12.4,53.3,25,79.9,37.6
		c35.4,16.9,70.6,34,105.7,51.3c3.8,61.5,7.6,123,11.4,184.5c-56.8,30-113.2,59.7-169.1,88.9c-60.6-31.2-121.6-61.6-183.1-91.3
		C232.5,1840,227,1780.7,221.5,1721.4z M271.1,2256.8c54.3-27.3,109-55,164.1-83.1c25.6,13.8,51.1,27.8,76.5,41.9
		c34,18.8,67.8,37.8,101.4,57.1c3.8,61.5,7.6,123,11.4,184.5c-54.2,26.7-108,53-161.4,78.9c-58.1-34.5-116.6-68.3-175.5-101.4
		C282,2375.3,276.5,2316.1,271.1,2256.8z M2505,2316.8c-60.2,30.8-119.9,61.3-179.2,91.4c-23.1-18.1-46.4-36.1-69.7-54
		c-31.1-23.8-62.4-47.4-93.8-70.8c4.3-71.3,8.5-142.7,12.8-214c60.2-31.5,120.9-63.3,182-95.5c55.9,40.2,111.4,81.1,166.3,122.6
		C2517.3,2169.9,2511.1,2243.4,2505,2316.8z M2560.3,1653.4c-63,34-125.6,67.7-187.7,100.9c-24.4-16.8-48.9-33.5-73.4-50
		c-32.7-22-65.5-43.7-98.4-65.2c4.3-71.3,8.5-142.7,12.8-214c63-34.7,126.5-69.7,190.4-105.1c58.7,37,117,74.7,174.8,113.1
		C2572.6,1506.5,2566.5,1580,2560.3,1653.4z M2615.7,990c-65.9,37.2-131.3,74-196.2,110.5c-25.6-15.4-51.2-30.7-76.9-45.8
		c-34.3-20.2-68.8-40.1-103.4-59.8c4.3-71.3,8.5-142.7,12.8-214c65.8-37.9,132-76.1,198.8-114.7c61.5,33.8,122.6,68.3,183.3,103.5
		C2627.9,843.1,2621.8,916.5,2615.7,990z M2671,326.6c-68.7,40.4-136.9,80.4-204.7,120c-26.8-14-53.6-27.9-80.5-41.7
		c-35.9-18.4-71.9-36.5-108.1-54.4c4.3-71.3,8.5-142.7,12.8-214C2359,95.4,2428.1,54,2497.6,12.2c64.4,30.6,128.3,61.9,191.7,94
		C2683.2,179.6,2677.1,253.1,2671,326.6z M-82.8,586.8c-6.3-58.1-12.7-116.3-19-174.4c62.8-38.9,126.1-78.2,189.8-117.9
		c69.2,19.6,138.1,39.9,206.5,61c4.6,60.4,9.3,120.8,13.9,181.2c-62.8,38.2-125.2,76-187.2,113.4c-29-9.3-58.1-18.6-87.3-27.6
		C-4.7,610.2-43.7,598.4-82.8,586.8z M-25.6,1111.9c-6.3-58.1-12.7-116.3-19-174.4C15.7,901.9,76.5,866,137.7,829.7
		c66.7,23,133,46.7,198.9,71.1c4.6,60.4,9.3,120.8,13.9,181.2c-60.3,34.8-120.2,69.3-179.6,103.3c-27.9-10.8-55.9-21.5-84-32
		C49.6,1139.3,12.1,1125.5-25.6,1111.9z M31.6,1637c-6.3-58.1-12.7-116.3-19-174.4c57.8-32.1,116.1-64.7,174.7-97.6
		c64.2,26.3,127.9,53.4,191.3,81.2c4.6,60.4,9.3,120.8,13.9,181.2c-57.7,31.5-115.1,62.5-172,93.2c-26.9-12.3-53.9-24.4-80.9-36.4
		C103.8,1668.2,67.7,1652.5,31.6,1637z M88.7,2162.2c-6.3-58.1-12.7-116.3-19-174.4c55.3-28.7,111-57.9,167.2-87.4
		c61.6,29.7,122.9,60.2,183.6,91.3c4.6,60.4,9.3,120.8,13.9,181.2c-55.2,28.1-110,55.8-164.4,83.1c-25.8-13.7-51.6-27.3-77.5-40.7
		C158.2,2197.3,123.5,2179.6,88.7,2162.2z M145.9,2687.3c-6.3-58.1-12.7-116.3-19-174.4c52.8-25.4,106-51.1,159.6-77.3
		c59.1,33.1,117.8,66.9,176,101.4c4.6,60.4,9.3,120.8,13.9,181.2c-52.6,24.8-104.9,49.1-156.7,73c-24.7-15.2-49.4-30.2-74.2-45.1
		C212.4,2726.3,179.2,2706.7,145.9,2687.3z M477.5,2718.3c-4.6-60.4-9.3-120.8-13.9-181.2c53.4-25.9,107.2-52.2,161.4-78.8
		c58,34.8,115.6,70.4,172.7,106.6c2.9,62.6,5.9,125.2,8.8,187.8c-53.3,25.3-106.3,50.1-158.8,74.6c-24.1-15.9-48.3-31.6-72.5-47.2
		C542.8,2759.2,510.3,2738.6,477.5,2718.3z M807.6,2752.8c-2.9-62.6-5.9-125.2-8.8-187.8c54.4-26.4,109.1-53.1,164.3-80.3
		c57.3,36.6,114.1,73.8,170.4,111.8c1.2,64.8,2.4,129.6,3.6,194.5c-54.2,25.7-108,51.1-161.5,76.1c-23.8-16.6-47.7-33.1-71.7-49.5
		C872,2795.7,839.9,2774.2,807.6,2752.8z M1138.1,2791.1c-1.2-64.8-2.4-129.7-3.5-194.5c55-26.9,110.4-54.1,166.2-81.8
		c56.1,38.3,111.8,77.3,167,116.9c-0.6,67-1.2,134-1.8,201c-55,26.2-109.5,52.1-163.6,77.6c-23.3-17.3-46.6-34.5-70-51.6
		C1201.1,2836,1169.7,2813.4,1138.1,2791.1z M1467,2833c0.6-67,1.2-134,1.8-201c55.8-27.3,112-55.1,168.6-83.2
		c55.1,40,109.8,80.7,164,122c-2.4,69.2-4.8,138.3-7.2,207.5c-55.7,26.7-110.9,53.1-165.8,79c-22.9-18.1-45.8-36-68.8-53.8
		C1528.9,2879.8,1498,2856.2,1467,2833z M1795.3,2878.4c2.4-69.2,4.8-138.4,7.2-207.5c56.8-27.8,114-56,171.6-84.5
		c54.3,41.7,108.1,84.1,161.5,127.2c-4.3,71.3-8.5,142.7-12.8,214c-56.6,27.2-112.8,54-168.5,80.4c-22.5-18.8-45.1-37.4-67.8-56
		C1856.3,2927.2,1825.8,2902.7,1795.3,2878.4z M2123.9,2927.7c4.3-71.3,8.5-142.7,12.8-214c57.4-28.3,115.3-56.9,173.6-85.9
		c53.1,43.4,105.7,87.4,157.9,132.2c-6.1,73.5-12.3,146.9-18.4,220.4c-57.4,27.7-114.3,54.9-170.7,81.8
		c-21.9-19.5-44-38.9-66.1-58.1C2183.4,2978.3,2153.7,2952.9,2123.9,2927.7z M2666,2447.9c-7.1,74.5-14.1,149-21.2,223.5
		c-59.2,29.5-117.9,58.6-176.1,87.3c-52.1-44.7-104.8-88.8-157.9-132.2c5.2-72.4,10.4-144.8,15.6-217.2
		c59.3-30.1,119-60.5,179.2-91.4c23.1,18.3,46.2,36.7,69.1,55.2C2605.3,2397.8,2635.8,2422.7,2666,2447.9z M2729.9,1774.9
		c-7.1,74.5-14.1,149-21.2,223.5c-62,32.6-123.6,64.9-184.7,96.8c-55-41.6-110.4-82.4-166.3-122.6c5.2-72.4,10.4-144.8,15.6-217.2
		c62.1-33.3,124.7-66.9,187.7-100.9c24.4,16.9,48.7,34,72.9,51.2C2666,1728.5,2698.1,1751.6,2729.9,1774.9z M2793.8,1102
		c-7.1,74.5-14.1,149-21.2,223.5c-64.9,35.8-129.3,71.2-193.2,106.3c-57.8-38.4-116.1-76.1-174.8-113.1
		c5.2-72.4,10.4-144.8,15.6-217.2c64.9-36.5,130.3-73.3,196.2-110.5c25.6,15.5,51,31.2,76.4,47
		C2726.6,1059.1,2760.3,1080.4,2793.8,1102z M2857.7,429c-7.1,74.5-14.1,149-21.2,223.5c-67.7,38.9-135,77.5-201.7,115.8
		c-60.6-35.2-121.7-69.7-183.3-103.5c5.2-72.4,10.4-144.8,15.6-217.2c67.7-39.7,136-79.7,204.7-120c26.8,14.2,53.4,28.5,80,43
		C2787.2,389.8,2822.5,409.3,2857.7,429z M2744.7-557.2c-6.1,73.5-12.2,146.9-18.4,220.4c-71.5,43.5-142.5,86.7-213,129.6
		c-65.3-29.5-131-58.4-197.2-86.5c4.3-71.3,8.5-142.7,12.8-214c71.4-44.3,143.2-88.9,215.6-133.9
		C2611.6-614.2,2678.4-586.1,2744.7-557.2z M2327.6-507.6c-4.3,71.3-8.5,142.7-12.8,214c-70.6,43.3-140.8,86.2-210.5,128.7
		c-66.3-27.7-133.1-54.7-200.3-80.9c2.4-69.2,4.8-138.4,7.2-207.5c70.5-44,141.5-88.4,213-133.1
		C2192.5-560.9,2260.2-534.6,2327.6-507.6z M1910-453.2c-2.4,69.2-4.8,138.3-7.2,207.5c-69.4,42.9-138.3,85.5-206.7,127.7
		c-66.9-25.9-134.2-51.1-202-75.5c0.6-67,1.2-134,1.8-201c69.2-43.7,139-87.7,209.2-132C1773.8-502.8,1842.1-478.4,1910-453.2z
		 M1494.6-394.3c-0.6,67-1.2,134-1.8,201c-68.3,42.6-136.2,84.8-203.6,126.7c-67.7-24.1-135.8-47.4-204.3-70
		c-1.2-64.8-2.4-129.7-3.5-194.5c68.2-43.3,136.9-87,206-131.1C1356.9-440.3,1425.9-417.7,1494.6-394.3z M1080.1-330.9
		c1.2,64.8,2.4,129.6,3.6,194.5C1016.1-94.1,949-52.2,882.4-10.7C813.8-32.9,744.7-54.3,675.3-75c-2.9-62.6-5.9-125.2-8.8-187.8
		c67.4-43,135.2-86.4,203.6-130.2C940.5-373,1010.5-352.3,1080.1-330.9z M665.2-262.6c2.9,62.6,5.9,125.2,8.8,187.8
		C607.7-32.9,541.9,8.6,476.5,49.8C407.4,29.4,337.8,9.8,267.9-9c-4.6-60.4-9.3-120.8-13.9-181.2c66.1-42.6,132.7-85.6,199.8-129
		C524.6-301.1,595.1-282.2,665.2-262.6z M38.5-240.9c71.8,16.2,143.1,33.2,214.1,50.9c4.6,60.4,9.3,120.8,13.9,181.2
		C201.1,32.7,136,73.9,71.5,114.7C1.4,96.3-69.1,78.6-139.9,61.6c-6.3-58.1-12.7-116.3-19-174.4C-93.6-155.1-27.8-197.8,38.5-240.9z
		 M-332,184.9c63.5-40.4,127.5-81.2,191.9-122.4c8.1,1.9,16.2,3.8,24.2,5.7c62.7,15.2,125.2,31,187.3,47.4
		c5.5,59.3,11,118.5,16.5,177.8c-63.7,39.7-127,79-189.9,117.9c-69.2-19.2-138.7-37.7-208.6-55.4
		C-317.7,298.9-324.8,241.9-332,184.9z M-267.3,699.8c61-37,122.5-74.4,184.5-112.2c29.3,8.7,58.6,17.6,87.8,26.6
		c38.9,12,77.6,24.2,116.2,36.7c5.5,59.3,11,118.5,16.5,177.8C76.4,865,15.6,900.9-44.7,936.4c-66.7-22.6-133.7-44.5-201.2-65.6
		C-253,813.9-260.2,756.8-267.3,699.8z M-202.7,1214.8c58.6-33.6,117.6-67.6,177-102c28.3,10.2,56.4,20.5,84.5,30.9
		c37.4,13.9,74.7,28.1,111.9,42.5c5.5,59.3,11,118.5,16.5,177.8c-58.7,32.9-116.9,65.5-174.8,97.6c-64.2-26-128.7-51.3-193.7-75.8
		C-188.4,1328.8-195.5,1271.8-202.7,1214.8z M-138.1,1729.7c56.1-30.2,112.6-60.8,169.5-91.8c27.2,11.7,54.4,23.4,81.5,35.4
		c35.9,15.8,71.8,31.9,107.4,48.2c5.5,59.3,11,118.5,16.5,177.8c-56.2,29.6-111.9,58.7-167.2,87.5c-61.7-29.4-123.7-58-186.2-86
		C-123.7,1843.7-130.9,1786.7-138.1,1729.7z M-73.4,2244.6c53.6-26.8,107.6-54,162.1-81.6c26.1,13.1,52.1,26.3,78.1,39.7
		c34.6,17.8,69,35.8,103.2,54.1c5.5,59.3,11,118.5,16.5,177.8c-53.6,26.2-106.8,52-159.7,77.3c-59.1-32.8-118.7-64.8-178.7-96.2
		C-59.1,2358.7-66.3,2301.6-73.4,2244.6z M12.7,2930.6c-7.2-57-14.3-114-21.5-171c51.1-23.4,102.7-47.2,154.6-71.5
		c25,14.5,50,29.2,74.8,44c33.1,19.7,66.1,39.7,98.9,59.9c5.5,59.3,11,118.5,16.5,177.8c-51.1,22.8-101.8,45.2-152.1,67.2
		C127.3,3000.8,70.2,2965.3,12.7,2930.6z M337.1,2969.9c-5.5-59.3-11-118.5-16.5-177.8c51.8-23.9,103.9-48.3,156.5-73
		c24.5,15.3,48.9,30.6,73.2,46.2c32.5,20.7,64.8,41.7,97,62.9c3.8,61.5,7.6,123,11.4,184.5c-51.7,23.3-102.9,46.3-153.8,68.8
		C449.5,3043.6,393.5,3006.4,337.1,2969.9z M659.8,3012.7c-3.8-61.5-7.6-123-11.4-184.5c52.6-24.4,105.6-49.3,159-74.6
		c24.1,16,48.1,32.1,72,48.4c31.9,21.7,63.6,43.6,95.2,65.7c2.1,63.7,4.1,127.4,6.2,191.1c-52.4,23.9-104.4,47.3-156,70.4
		C770.2,3089.8,715.2,3050.9,659.8,3012.7z M981.7,3059.1c-2.1-63.7-4.1-127.4-6.2-191.2c53.4-24.9,107.2-50.3,161.5-76
		c23.8,16.8,47.5,33.6,71.1,50.7c31.5,22.7,62.8,45.6,93.9,68.7c0.3,65.9,0.6,131.8,0.9,197.8c-53.3,24.3-106.2,48.3-158.7,71.8
		C1090.5,3139.6,1036.4,3099,981.7,3059.1z M1304,3109.2c-0.3-65.9-0.6-131.8-0.9-197.8c54.1-25.5,108.6-51.3,163.5-77.6
		c23.2,17.5,46.4,35.1,69.5,52.8c30.8,23.6,61.4,47.5,91.8,71.6c-1.5,68.1-3,136.2-4.5,204.3c-53.9,24.9-107.4,49.3-160.5,73.4
		C1410.4,3193,1357.4,3150.7,1304,3109.2z M1624.4,3162.7c1.5-68.1,3-136.2,4.5-204.3c54.9-25.9,110.3-52.3,166-79
		c22.9,18.2,45.8,36.5,68.5,55c30.4,24.6,60.5,49.5,90.6,74.6c-3.3,70.3-6.7,140.5-10,210.8c-54.9,25.3-109.3,50.3-163.3,74.8
		C1729.1,3249.9,1677,3205.9,1624.4,3162.7z M1945.1,3219.9c3.3-70.3,6.7-140.5,10-210.8c55.6-26.4,111.6-53.3,168.1-80.5
		c22.4,18.9,44.7,38,66.9,57.1c29.6,25.6,59.1,51.3,88.4,77.3c-5.2,72.4-10.4,144.8-15.6,217.2c-55.5,25.8-110.6,51.3-165.2,76.4
		C2047.4,3310.4,1996.5,3264.8,1945.1,3219.9z M2580.9,3344.3c-56.3,26.3-112.1,52.2-167.6,77.8c-49.3-47.9-99.1-95.1-149.4-141.7
		c5.2-72.4,10.4-144.8,15.6-217.2c56.5-26.9,113.4-54.2,170.7-81.8c21.9,19.6,43.7,39.4,65.4,59.3c29,26.5,57.8,53.2,86.4,80.1
		C2595.1,3195.3,2588,3269.8,2580.9,3344.3z M2775.8,3036.6c-58.1,28.1-115.8,55.9-173,83.2c-21.5-20.2-43.1-40.3-64.8-60.3
		c-28.9-26.6-58-53-87.3-79.2c6.1-73.5,12.3-146.9,18.4-220.4c58.3-28.7,116.9-57.8,176.1-87.3c52.1,45,103.6,90.8,154.7,137.2
		C2791.9,2885.5,2783.9,2961.1,2775.8,3036.6z M2848.4,2354.2c-61,31.3-121.5,62.2-181.6,92.7c-22.7-18.9-45.6-37.6-68.5-56.2
		c-30.6-24.8-61.3-49.4-92.1-73.7c6.1-73.5,12.3-146.9,18.4-220.4c61.1-31.9,122.6-64.2,184.6-96.8
		c54.9,41.9,109.4,84.5,163.3,127.7C2864.4,2203.1,2856.4,2278.6,2848.4,2354.2z M2920.9,1671.7c-63.9,34.4-127.3,68.4-190.2,102.1
		c-24-17.5-48.1-34.9-72.3-52.2c-32.1-23-64.4-45.7-96.9-68.2c6.1-73.5,12.3-146.9,18.4-220.4c63.9-35.1,128.3-70.5,193.2-106.3
		c57.8,38.7,115.1,78.2,171.9,118.3C2937,1520.6,2928.9,1596.2,2920.9,1671.7z M2993.4,989.3c-66.8,37.5-133,74.7-198.9,111.6
		c-25.2-16.1-50.5-32.2-75.8-48.1c-33.8-21.2-67.8-42.1-101.9-62.9c6.1-73.5,12.3-146.9,18.4-220.4c66.8-38.2,134-76.8,201.7-115.8
		c60.6,35.6,120.8,71.8,180.5,108.8C3009.5,838.2,3001.5,913.7,2993.4,989.3z M3066,306.9c-69.6,40.7-138.8,81-207.5,121
		c-26.4-14.8-52.9-29.5-79.5-44c-35.4-19.4-71-38.5-106.8-57.4c6.1-73.5,12.3-146.9,18.4-220.4c69.6-41.4,139.7-83.2,210.3-125.3
		c63.5,32.4,126.6,65.5,189.2,99.4C3082,155.7,3074,231.3,3066,306.9z"/>
</g>
<defs>
	<filter id="Adobe_OpacityMaskFilter_1_" filterUnits="userSpaceOnUse" x="532.6" y="-628.3" width="3497.3" height="4116.9">
		<feColorMatrix  type="matrix" values="1 0 0 0 0  0 1 0 0 0  0 0 1 0 0  0 0 0 1 0"/>
	</filter>
</defs>
<mask maskUnits="userSpaceOnUse" x="532.6" y="-628.3" width="3497.3" height="4116.9" id="SVGID_4_">
	<g class="st5">
		
			<linearGradient id="SVGID_5_" gradientUnits="userSpaceOnUse" x1="3423.3279" y1="1169.7516" x2="6900.3096" y2="1169.7516" gradientTransform="matrix(-1 0 0 -1 7429.1646 2662.8174)">
			<stop  offset="0" style="stop-color:#FFFFFF"/>
			<stop  offset="1" style="stop-color:#000000"/>
		</linearGradient>
		<polygon class="st6" points="528.9,-456.7 4005.8,-456.7 4005.8,3442.8 528.9,3442.8 		"/>
	</g>
</mask>
<g class="st7">
	<path class="st4" d="M856.2,2824.1c0,0-0.1,0.1-0.1,0.1c7.2,57.4,14.4,114.7,21.6,172.1c57.6,34.9,114.8,70.5,171.5,106.8
		c0.1,0.1,0.1,0.1,0.2,0.2c50.3-22.1,101.1-44.5,152.2-67.4c56.6,36.5,112.7,73.7,168.3,111.7c0.1,0.1,0.2,0.1,0.3,0.2
		c51.1-22.6,102.6-45.6,154.4-69c55.6,38.2,110.7,77.2,165.4,116.8c0.1,0.1,0.2,0.1,0.3,0.2c51.8-23.1,104-46.6,156.7-70.6
		c54.6,39.9,108.8,80.6,162.4,121.9c0.1,0.1,0.2,0.1,0.3,0.2c52.6-23.6,105.5-47.7,158.9-72.1c53.6,41.6,106.7,83.9,159.4,127
		c0.1,0.1,0.2,0.1,0.3,0.2c53.3-24.1,107-48.7,161.2-73.6c52.6,43.3,104.7,87.3,156.2,132c0.1,0.1,0.2,0.1,0.2,0.2
		c54.1-24.6,108.6-49.7,163.5-75.1c51.5,45,102.5,90.6,153.1,137c0.1,0.1,0.2,0.1,0.2,0.2c54.9-25.1,110.2-50.6,165.9-76.6
		c50.4,46.6,100.4,94,149.8,142c0.1,0.1,0.2,0.2,0.2,0.2c55.8-25.6,112.1-51.7,168.8-78.1c0.2,0,0.3,0,0.5-0.1
		c7.1-74.8,14.2-149.5,21.3-224.3c57.4-27.4,115.2-55.2,173.4-83.3c0.1,0,0.1-0.1,0.2-0.2c8.1-76,16.2-152.1,24.3-228.1
		c-51.2-46.5-103-92.4-155.2-137.6c7.1-74.6,14.2-149.2,21.3-223.8c60.2-30.6,120.9-61.5,182.1-92.8c0.1-0.1,0.1-0.1,0.2-0.2
		c8.1-76,16.2-152.1,24.3-228.1c-54.1-43.4-108.7-86.1-163.8-128.1c7.1-74.6,14.2-149.2,21.3-223.8
		c63.1-33.7,126.7-67.8,190.7-102.3c0.1-0.1,0.1-0.1,0.2-0.2c8.1-76,16.2-152.1,24.3-228.1c-57-40.2-114.5-79.8-172.5-118.6
		c7.1-74.6,14.2-149.2,21.3-223.8c66-36.9,132.4-74.1,199.3-111.7c0.1-0.1,0.1-0.1,0.2-0.2c8.1-76,16.2-152.1,24.3-228.1
		c-59.9-37.1-120.3-73.5-181.1-109.2c7.1-74.6,14.2-149.2,21.3-223.8c68.8-40.1,138.2-80.5,208-121.2c0.1-0.1,0.1-0.1,0.2-0.2
		c8.1-76,16.2-152.1,24.3-228.1c-62.8-33.9-126.1-67.2-189.8-99.7c7.1-74.6,14.2-149.2,21.3-223.8c71.7-43.2,143.9-86.8,216.6-130.7
		c0.1-0.1,0.2-0.1,0.2-0.2c8.1-76,16.2-152.1,24.3-228.1c-65.9-30.8-132.3-60.9-199.2-90.3c-0.1,0-0.3-0.1-0.4-0.1
		c-73.8,45.4-147.1,90.5-219.8,135.3c-66.5-28.9-133.4-57.1-200.8-84.5c-0.1,0-0.2-0.1-0.3-0.1c-72.7,45.1-144.9,89.9-216.5,134.4
		c-67.3-27.1-135-53.4-203.2-79c-0.1,0-0.2-0.1-0.3-0.1c-71.6,44.8-142.7,89.3-213.3,133.5c-68.1-25.2-136.6-49.7-205.5-73.4
		c-0.1,0-0.2-0.1-0.3-0.1c-70.5,44.5-140.6,88.7-210.1,132.5c-68.8-23.4-138.1-46-207.7-67.9c-0.1,0-0.2-0.1-0.3-0.1
		c-69.5,44.2-138.4,88.1-206.9,131.5c-69.6-21.5-139.6-42.3-209.9-62.3c-0.1,0-0.2-0.1-0.3-0.1c-68.4,43.9-136.3,87.4-203.8,130.5
		c-70.3-19.6-141-38.5-212-56.7c-0.1,0-0.2-0.1-0.3-0.1c-67.4,43.5-134.3,86.7-200.7,129.5c-71-17.8-142.3-34.8-214.1-51
		c-0.1,0-0.2-0.1-0.3-0.1C837.2-133.3,771.3-90.5,705.8-48c0,0.1-0.1,0.1-0.1,0.2c6.4,58.3,12.7,116.6,19.1,175
		c-64.4,41.2-128.4,82.1-191.9,122.5c-0.1,0.1-0.1,0.1-0.2,0.2c7.2,57.4,14.4,114.7,21.6,172.1c69.9,17.8,139.5,36.4,208.7,55.7
		c6.3,58.2,12.7,116.4,19,174.6C720,690,658.5,727.5,597.5,764.5c-0.1,0.1-0.1,0.1-0.2,0.2c7.2,57.4,14.4,114.7,21.6,172.1
		c67.5,21.2,134.5,43.2,201.2,65.9c6.3,58.2,12.7,116.4,19,174.6c-59.4,34.4-118.4,68.5-177,102.2c-0.1,0.1-0.1,0.1-0.2,0.2
		c7.2,57.4,14.4,114.7,21.6,172.1c65,24.6,129.6,50,193.7,76c6.3,58.2,12.7,116.4,19,174.6c-56.9,31.1-113.4,61.7-169.5,92
		c-0.1,0-0.1,0.1-0.2,0.1c7.2,57.4,14.4,114.7,21.6,172.1c62.5,28,124.6,56.8,186.2,86.2c6.3,58.2,12.7,116.4,19,174.6
		c-54.4,27.7-108.4,54.9-162,81.8c-0.1,0-0.1,0.1-0.2,0.1c7.2,57.4,14.4,114.7,21.6,172.1c60,31.4,119.6,63.6,178.8,96.4
		c6.3,58.2,12.7,116.4,19,174.6C958.9,2776.7,907.3,2800.6,856.2,2824.1z M878.6,2995.9c-7.2-57-14.3-114-21.5-171
		c51-23.4,102.4-47.2,154.2-71.5c58.1,33.9,115.8,68.5,173.1,103.8c5.5,59.3,11,118.5,16.5,177.8c-50.9,22.8-101.4,45.2-151.6,67.2
		C992.9,3066,936,3030.6,878.6,2995.9z M1011.8,2752.5c-6.3-58.1-12.7-116.3-19-174.4c52.6-25.4,105.7-51.1,159.1-77.3
		c58.9,33.1,117.4,66.9,175.5,101.4c4.7,60.4,9.3,120.8,14,181.1c-35.1,16.5-70,32.8-104.7,49c-17.4,8.1-34.7,16.1-51.9,24.1
		c-6.4-4-12.8-8-19.3-11.9C1114.6,2813.2,1063.4,2782.6,1011.8,2752.5z M3144.1,3127.2c-5.7-5.1-11.4-10.1-17.1-15.1
		c-45.7-40.3-91.8-80.1-138.3-119.3c4.3-71.3,8.5-142.7,12.8-214c57.4-28.3,115.3-56.9,173.6-85.9c53.1,43.4,105.7,87.4,157.9,132.1
		c-6.1,73.4-12.2,146.9-18.4,220.3c-38.2,18.4-76.2,36.7-114,54.8C3181.7,3109.2,3162.9,3118.2,3144.1,3127.2z M2819.3,3073
		c-5.8-4.9-11.7-9.9-17.5-14.8c-46.5-38.7-93.3-76.9-140.6-114.6c2.4-69.2,4.8-138.4,7.2-207.5c56.6-27.8,113.6-56,171.1-84.6
		c54.1,41.7,107.8,84,161,127.1c-4.2,71.3-8.5,142.6-12.7,214c-37.7,18.1-75.2,36.1-112.6,53.9
		C2856.5,3055.4,2837.9,3064.2,2819.3,3073z M2493.8,3022.5c-6.1-4.8-12.1-9.5-18.2-14.3c-47.5-37.3-95.4-74-143.6-110.1
		c0.6-67,1.2-134,1.8-201c56-27.3,112.3-55,169.1-83.1c55.3,40,110.2,80.7,164.5,122.1c-2.4,69.2-4.8,138.3-7.2,207.5
		c-37.2,17.8-74.3,35.4-111.1,52.9C2530.6,3005.1,2512.1,3013.8,2493.8,3022.5z M2167.5,2975.5c-6.1-4.6-12.2-9.1-18.4-13.7
		c-48.3-35.7-97-71-146.1-105.6c-1.2-64.8-2.4-129.6-3.6-194.5c55-26.9,110.4-54.1,166.2-81.8c56.1,38.3,111.8,77.2,167,116.9
		c-0.6,67-1.2,134-1.8,201c-36.6,17.5-73,34.8-109.2,52C2203.6,2958.5,2185.5,2967,2167.5,2975.5z M1840.6,2932.2
		c-6.2-4.3-12.5-8.6-18.7-12.9c-49.4-34.3-99.2-68.1-149.3-101.3c-2.9-62.6-5.9-125.2-8.8-187.8c54.4-26.4,109.1-53.1,164.3-80.3
		c57.3,36.6,114.1,73.8,170.4,111.8c1.2,64.8,2.4,129.6,3.6,194.4c-36.1,17.2-72.1,34.2-107.9,51
		C1876.2,2915.5,1858.4,2923.8,1840.6,2932.2z M1513,2892.4c-6.4-4.2-12.8-8.4-19.2-12.5c-50.1-32.7-100.6-64.9-151.4-96.5
		c-4.6-60.4-9.3-120.8-13.9-181.2c53.4-25.9,107.2-52.2,161.4-78.8c58,34.8,115.6,70.3,172.7,106.6c2.9,62.6,5.9,125.2,8.8,187.8
		c-35.5,16.8-70.8,33.5-106,50C1547.9,2876.1,1530.4,2884.3,1513,2892.4z M1300.5,2238c-4.6-60.4-9.3-120.8-13.9-181.2
		c55.9-29.2,112.3-58.8,169.1-88.9c60.6,31.5,120.7,63.7,180.5,96.6c2.9,62.6,5.9,125.2,8.8,187.8c-55.9,28.6-111.4,56.8-166.4,84.6
		c-25.2-14.4-50.6-28.8-76-42.9C1368.6,2275.1,1334.6,2256.5,1300.5,2238z M1258.5,1692.6c-4.6-60.4-9.3-120.8-13.9-181.2
		c58.5-32.6,117.4-65.5,176.8-98.9c63.2,28.1,125.9,57,188.2,86.6c2.9,62.6,5.9,125.2,8.8,187.8c-58.5,31.9-116.5,63.4-174.2,94.6
		c-26.3-13-52.8-25.9-79.3-38.6C1329.6,1725.9,1294.1,1709.1,1258.5,1692.6z M1216.5,1147.2c-4.6-60.4-9.3-120.8-13.9-181.2
		c61-35.9,122.5-72.2,184.5-108.9c65.7,24.8,131,50.3,196,76.6c2.9,62.6,5.9,125.2,8.8,187.8c-61.1,35.2-121.7,70.1-181.9,104.6
		c-27.5-11.6-55.1-23.1-82.7-34.4C1290.4,1176.6,1253.5,1161.8,1216.5,1147.2z M1174.5,601.8c-4.6-60.4-9.3-120.8-13.9-181.2
		c63.6-39.3,127.6-78.9,192.1-119c68.3,21.5,136.2,43.7,203.7,66.6c2.9,62.6,5.9,125.2,8.8,187.8c-63.7,38.6-126.9,76.7-189.7,114.6
		c-28.5-10.2-57.2-20.2-85.9-30C1251.4,627.4,1213,614.5,1174.5,601.8z M3330.5,513c-5.2,72.4-10.4,144.8-15.5,217.2
		c-66.7,38.6-133,76.8-198.8,114.7c-61.5-33.4-123.5-66.2-186-98.2c3.3-70.3,6.7-140.5,10-210.8c66.7-39.3,133.9-79,201.5-119
		c27.1,13.4,54.2,26.9,81.1,40.6C3258.9,475.8,3294.8,494.3,3330.5,513z M3283.7,1166.8c-5.2,72.4-10.4,144.8-15.5,217.2
		c-63.9,35.4-127.4,70.5-190.4,105.1c-58.7-36.6-118-72.6-177.6-107.8c3.3-70.3,6.7-140.5,10-210.8
		c63.9-36.1,128.3-72.5,193.2-109.4c26,14.8,51.9,29.7,77.7,44.8C3215.4,1126,3249.6,1146.3,3283.7,1166.8z M3236.9,1820.6
		c-5.2,72.4-10.4,144.8-15.5,217.2c-61.1,32.2-121.8,64.1-182,95.5c-56-39.8-112.4-79-169.3-117.5c3.3-70.3,6.7-140.5,10-210.8
		c61.2-32.9,122.8-66.1,184.9-99.7c24.7,16.1,49.4,32.4,74,48.8C3171.8,1776.1,3204.4,1798.2,3236.9,1820.6z M3190.2,2474.4
		c-5.2,72.4-10.4,144.8-15.5,217.2c-58.3,29-116.2,57.7-173.6,86c-53.2-43.1-106.8-85.4-161-127.1c3.3-70.3,6.7-140.5,10-210.8
		c58.4-29.6,117.3-59.7,176.6-90.1c23.5,17.5,47,35.2,70.4,52.9C3128.2,2426.2,3159.3,2450.2,3190.2,2474.4z M3026.1,2348.5
		c-59.4,30.4-118.3,60.4-176.7,90.1c-23.6-17.4-47.2-34.7-70.9-51.8c-31.7-22.9-63.5-45.5-95.4-67.9c2.4-69.2,4.8-138.4,7.2-207.5
		c59.3-31,119.1-62.5,179.3-94.3c56.9,38.5,113.3,77.6,169.3,117.5C3034.6,2205.8,3030.3,2277.1,3026.1,2348.5z M1646,2252.4
		c-2.9-62.6-5.9-125.2-8.8-187.8c57-29.7,114.4-59.8,172.2-90.2c59.9,33.2,119.3,67.2,178.3,101.9c1.2,64.8,2.4,129.6,3.6,194.4
		c-56.8,29.1-113.2,57.7-169.2,86c-24.9-15.2-50-30.2-75.1-45.2C1713.4,2291.6,1679.8,2271.9,1646,2252.4z M1619.5,1687
		c-2.9-62.6-5.9-125.2-8.8-187.8c59.6-33,119.6-66.4,180-100.2c62.5,29.9,124.6,60.6,186.2,91.9c1.2,64.8,2.4,129.6,3.6,194.4
		c-59.5,32.4-118.5,64.3-177.1,95.9c-26.1-13.8-52.2-27.4-78.5-40.9C1689.9,1722.3,1654.8,1704.5,1619.5,1687z M1593,1121.5
		c-2.9-62.6-5.9-125.2-8.8-187.8c62.2-36.4,124.8-73.1,187.9-110.2c65.1,26.6,129.9,53.9,194.2,82c1.2,64.8,2.4,129.6,3.6,194.4
		c-62.1,35.7-123.8,70.9-185.1,105.8c-27.3-12.4-54.6-24.6-82-36.7C1666.3,1152.9,1629.7,1137.1,1593,1121.5z M2909,1170.5
		c-3.3,70.2-6.6,140.5-10,210.7c-63.2,35-125.9,69.7-188.2,104c-59.9-34.9-120.2-69.1-181-102.5c1.5-68.1,3-136.2,4.5-204.3
		c63.1-35.7,126.7-71.8,190.8-108.2c26.5,14.1,53,28.2,79.3,42.6C2839.4,1131.8,2874.3,1151,2909,1170.5z M2879,1805
		c-3.3,70.2-6.6,140.5-10,210.7c-60.4,31.8-120.4,63.2-179.9,94.2c-57.1-38.1-114.7-75.6-172.7-112.3c1.5-68.1,3-136.2,4.5-204.3
		c60.4-32.4,121.2-65.3,182.5-98.5c25.3,15.4,50.5,31,75.6,46.7C2812.5,1762.5,2845.8,1783.6,2879,1805z M1785.6,1206.6
		c61.1-34.9,122.7-70.2,184.7-105.8c27.1,12.5,54.2,25.2,81.2,38c35.9,17,71.6,34.2,107.1,51.7c0.3,65.9,0.6,131.8,0.9,197.7
		c-61.2,34.2-121.9,68-182.1,101.5c-61.5-31.4-123.3-62-185.7-91.9C1789.8,1334,1787.7,1270.3,1785.6,1206.6z M1981.6,1685.3
		c-1.2-64.8-2.4-129.6-3.6-194.5c60.3-33.4,121-67.3,182.1-101.5c61.5,31.7,122.5,64.1,183,97.3c-0.6,67-1.2,134-1.8,201
		c-60.3,32.8-120.1,65.2-179.6,97.2c-25.6-14.5-51.2-28.9-76.9-43.2C2050.7,1722.6,2016.2,1703.8,1981.6,1685.3z M2162.6,1785.8
		c59.5-32,119.3-64.4,179.7-97.2c25.5,14.7,51,29.5,76.4,44.4c33.8,19.9,67.5,40,101.1,60.4c-1.5,68.1-3,136.2-4.5,204.3
		c-59.4,31.4-118.3,62.4-176.7,93c-57.9-36.4-116.2-72.1-175-107.1C2163.2,1917.6,2162.9,1851.7,2162.6,1785.8z M2703.6,1694
		c-61.3,33.2-122.2,66-182.6,98.5c-25.3-15.3-50.7-30.4-76.2-45.4c-33.9-20-68-39.8-102.2-59.4c0.6-67,1.2-134,1.8-201
		c61.4-33.9,123.2-68.1,185.4-102.7c60.8,33.5,121.1,67.7,180.9,102.6C2708.4,1555.6,2706,1624.8,2703.6,1694z M2533.2,1178.4
		c-1.5,68.1-3,136.2-4.5,204.3c-62.1,34.6-123.7,68.9-184.8,102.7c-60.6-33.1-121.6-65.6-183.1-97.3c-0.3-65.9-0.6-131.8-0.9-197.8
		c62.1-35.3,124.7-71,187.7-107c26.7,13.3,53.4,26.7,80,40.3C2462.9,1141.7,2498.1,1159.9,2533.2,1178.4z M1804.3,1782.1
		c58.5-31.6,117.5-63.5,176.8-95.9c26,13.9,51.8,28,77.6,42.1c34.4,18.9,68.6,38,102.7,57.4c0.3,65.9,0.6,131.8,0.9,197.7
		c-58.5,30.9-116.5,61.5-174.2,91.6c-58.8-34.7-118.1-68.6-177.8-101.8C1808.4,1909.6,1806.3,1845.8,1804.3,1782.1z M2725.3,1069.2
		c-64.1,36.4-127.7,72.5-190.8,108.2c-26.5-13.9-53.1-27.7-79.8-41.3c-35.4-18.1-71-36-106.7-53.7c0.6-67,1.2-134,1.8-201
		c64.1-37.1,128.6-74.7,193.6-112.5c63.5,30.2,126.5,61.2,189.2,92.8C2730.1,930.8,2727.7,1000,2725.3,1069.2z M2346.8,1082.4
		c-63,36-125.5,71.7-187.6,107c-26.8-13.1-53.6-26.2-80.5-39c-35.8-17.1-71.7-34-107.7-50.6c-1.2-64.8-2.4-129.6-3.6-194.5
		c62.9-36.7,126.3-73.9,190.1-111.3c64.1,28.4,127.8,57.6,191.1,87.5C2348,948.4,2347.4,1015.4,2346.8,1082.4z M1992.3,2270.8
		c-1.2-64.8-2.4-129.6-3.6-194.5c57.6-30.2,115.7-60.7,174.2-91.6c58.8,35,117.1,70.7,175,107.1c-0.6,67-1.2,134-1.8,201
		c-57.6,29.5-114.8,58.6-171.5,87.4c-24.4-15.9-48.9-31.7-73.5-47.4C2058.4,2311.9,2025.4,2291.2,1992.3,2270.8z M2337.3,2292.8
		c0.6-67,1.2-134,1.8-201c58.7-30.6,117.7-61.6,177.3-92.9c58,36.7,115.6,74.2,172.7,112.3c-2.4,69.2-4.8,138.3-7.2,207.5
		c-58.6,30-116.7,59.5-174.4,88.7c-24.1-16.7-48.3-33.2-72.7-49.7C2402.5,2335.9,2369.9,2314.3,2337.3,2292.8z M3064.4,1704.3
		c-62.1,33.6-123.8,66.9-185.1,99.7c-24.7-16-49.6-31.9-74.5-47.7c-33.2-21-66.6-41.8-100.1-62.4c2.4-69.2,4.8-138.4,7.2-207.5
		c62.1-34.3,124.6-68.9,187.6-103.9c59.7,35.2,118.9,71.2,177.6,107.8C3072.9,1561.6,3068.7,1633,3064.4,1704.3z M3102.8,1060.1
		c-64.9,36.8-129.4,73.3-193.4,109.4c-26-14.7-52-29.2-78.2-43.6c-34.8-19.1-69.7-38.1-104.7-56.7c2.4-69.2,4.8-138.4,7.2-207.5
		c64.8-37.5,130.1-75.4,195.8-113.6c62.4,32,124.4,64.8,185.9,98.2C3111.2,917.5,3107,988.8,3102.8,1060.1z M1410.4,1227
		c60.3-34.5,121.1-69.3,182.4-104.6c27.6,11.7,55.1,23.6,82.6,35.6c36.5,16,72.9,32.2,109.1,48.6c2.1,63.7,4.1,127.4,6.2,191.1
		c-60.5,33.8-120.5,67.2-180,100.2c-62.5-29.6-125.4-58.4-188.8-86.6C1418,1349.9,1414.2,1288.4,1410.4,1227z M1444.7,1782.4
		c57.8-31.1,116-62.7,174.6-94.6c26.4,13.1,52.8,26.4,79.1,39.8c35.1,17.9,70,36,104.7,54.4c2.1,63.7,4.1,127.4,6.2,191.1
		c-57.8,30.5-115.2,60.6-172.2,90.3c-59.9-32.9-120.2-65.1-181-96.6C1452.3,1905.4,1448.5,1843.9,1444.7,1782.4z M1479,2337.9
		c55.2-27.8,110.8-56,166.8-84.6c25.3,14.6,50.6,29.3,75.7,44.1c33.6,19.8,67,39.9,100.2,60.1c2.1,63.7,4.1,127.4,6.2,191.1
		c-55.2,27.2-110,53.9-164.3,80.3c-57.3-36.2-115.1-71.8-173.3-106.6C1486.6,2460.9,1482.8,2399.4,1479,2337.9z M1822.9,2357.6
		c55.9-28.3,112.2-56.9,168.9-86c24.8,15.3,49.6,30.8,74.2,46.4c32.9,20.8,65.6,41.8,98.2,63c0.3,65.9,0.6,131.8,0.9,197.7
		c-55.8,27.6-111.2,54.9-166.2,81.8c-56.2-38-112.8-75.2-169.9-111.8C1827,2485.1,1824.9,2421.4,1822.9,2357.6z M2165.3,2381.1
		c56.8-28.7,114-57.9,171.6-87.4c24.4,16.1,48.7,32.3,72.9,48.6c32.3,21.8,64.4,43.8,96.4,66c-1.5,68.1-3,136.2-4.5,204.3
		c-56.6,28.1-112.8,55.9-168.6,83.2c-55.2-39.7-110.9-78.6-167-116.9C2165.9,2513,2165.6,2447.1,2165.3,2381.1z M2507.4,2408.4
		c57.7-29.2,115.8-58.8,174.3-88.7c24.1,16.8,48.2,33.8,72.1,50.8c31.9,22.8,63.6,45.7,95.2,68.9c-3.3,70.2-6.6,140.5-10,210.7
		c-57.6,28.6-114.8,56.7-171.6,84.5c-54.4-41.4-109.2-82.1-164.5-122.1C2504.4,2544.6,2505.9,2476.5,2507.4,2408.4z M2939,536
		c-3.3,70.2-6.6,140.5-10,210.7c-66,38.2-131.4,76.1-196.5,113.7c-62.6-31.6-125.7-62.6-189.2-92.8c1.5-68.1,3-136.2,4.5-204.3
		c65.8-39,132.2-78.3,199-118c27.7,12.6,55.2,25.4,82.7,38.3C2866.2,500.9,2902.6,518.3,2939,536z M2546.6,563.4
		c-1.5,68.1-3,136.2-4.5,204.3c-64.8,37.9-129.1,75.4-193,112.5c-63.3-29.9-127-59-191.1-87.4c-0.3-65.9-0.6-131.8-0.9-197.8
		c64.8-38.6,130-77.5,195.8-116.9c27.8,11.9,55.6,23.9,83.3,36C2473.2,530.4,2510,546.8,2546.6,563.4z M2155.9,595.1
		c0.3,65.9,0.6,131.8,0.9,197.7c-63.8,37.5-127.2,74.6-190.1,111.4c-64.1-28.1-128.6-55.4-193.6-82c-2.1-63.7-4.1-127.4-6.2-191.2
		c63.7-38.2,128-76.8,192.6-115.7c28.2,11.1,56.4,22.3,84.4,33.7C2081.5,564.1,2118.8,579.5,2155.9,595.1z M1765.8,631.2
		c2.1,63.7,4.1,127.4,6.2,191.1c-63.1,37.1-125.7,73.9-187.9,110.2c-65.1-26.2-130.6-51.8-196.6-76.5c-3.8-61.5-7.6-123-11.4-184.5
		c62.9-37.8,126.3-76,190.1-114.6c28.7,10.3,57.3,20.7,85.8,31.3C1690.1,602.2,1728,616.6,1765.8,631.2z M3141.1,415.9
		c-67.7,40-135,79.7-201.7,119c-27.1-13.3-54.3-26.4-81.6-39.4c-36.4-17.3-72.9-34.4-109.6-51.3c2.4-69.2,4.8-138.4,7.2-207.5
		c67.6-40.7,135.6-81.9,204.1-123.3c65.2,28.8,130,58.3,194.3,88.6C3149.6,273.3,3145.3,344.6,3141.1,415.9z M2747,444.4
		c-66.8,39.7-133.1,79-199,118c-27.6-12.5-55.4-24.8-83.2-37c-37-16.3-74.2-32.3-111.5-48.1c0.6-67,1.2-134,1.8-201
		c66.8-40.4,134-81.2,201.7-122.3c66.2,27,132,54.6,197.4,83C2751.8,306,2749.4,375.2,2747,444.4z M2352.1,477.3
		c-65.7,39.3-130.9,78.3-195.6,116.9c-27.8-11.7-55.8-23.3-83.8-34.8c-37.3-15.3-74.8-30.3-112.4-45.1
		c-1.2-64.8-2.4-129.6-3.6-194.5c65.5-40,131.6-80.4,198.1-121.2c66.8,25.2,133.2,51,199.1,77.6
		C2353.3,343.3,2352.7,410.3,2352.1,477.3z M1959,514.5c-64.8,39-129.1,77.5-193,115.8c-28.3-10.9-56.7-21.7-85.2-32.3
		c-38-14.2-76.1-28.2-114.4-41.9c-2.9-62.6-5.9-125.2-8.8-187.8c64.8-39.7,130-79.8,195.7-120.2c67.8,23.3,135.1,47.3,202.1,72.1
		C1956.6,384.8,1957.8,449.6,1959,514.5z M3369.9,2382c-60.1,30.8-119.8,61.3-179.1,91.4c-23.1-18.1-46.4-36.1-69.7-53.9
		c-31.1-23.8-62.5-47.5-93.9-70.9c4.3-71.3,8.5-142.7,12.8-214c60.2-31.5,120.9-63.3,182-95.5c55.9,40.2,111.4,81,166.3,122.6
		C3382.1,2235.1,3376,2308.5,3369.9,2382z M3425.1,1718.6c-63,34-125.5,67.7-187.6,100.9c-24.3-16.7-48.8-33.4-73.3-49.8
		c-32.8-22-65.7-43.8-98.7-65.4c4.3-71.3,8.5-142.7,12.8-214c63-34.7,126.4-69.7,190.4-105.1c58.7,37,117,74.7,174.8,113.1
		C3437.4,1571.7,3431.3,1645.2,3425.1,1718.6z M3480.4,1055.2c-65.8,37.2-131.2,74-196,110.5c-25.6-15.4-51.3-30.7-77-45.8
		c-34.3-20.2-68.8-40.1-103.4-59.8c4.3-71.3,8.5-142.7,12.8-214c65.8-37.9,132-76.1,198.8-114.7c61.6,33.8,122.6,68.3,183.3,103.5
		C3492.6,908.4,3486.5,981.8,3480.4,1055.2z M3535.7,391.9c-68.7,40.4-136.8,80.4-204.5,120c-26.7-14-53.6-27.9-80.5-41.6
		c-36-18.4-72.1-36.5-108.3-54.4c4.3-71.3,8.5-142.7,12.8-214c68.6-41.1,137.6-82.5,207.2-124.3c64.4,30.6,128.3,61.9,191.8,94
		C3547.9,245,3541.8,318.4,3535.7,391.9z M987.1,716.1c61.9-37.4,124.2-75.2,187-113.4c28.9,9.5,57.6,19.2,86.3,29
		c38.3,13.1,76.4,26.4,114.5,39.9c3.8,61.5,7.6,123,11.4,184.5c-61.9,36.7-123.4,73-184.5,109c-65.7-24.4-131.8-48.2-198.3-71.1
		C998.1,834.7,992.6,775.4,987.1,716.1z M1036.7,1251.4c59.4-34,119.2-68.5,179.4-103.3c27.8,11,55.6,22.1,83.2,33.4
		c36.8,14.9,73.4,30.1,109.9,45.5c3.8,61.5,7.6,123,11.4,184.5c-59.4,33.4-118.3,66.3-176.8,98.9c-63.1-27.8-126.7-54.9-190.7-81.2
		C1047.7,1369.9,1042.2,1310.7,1036.7,1251.4z M1086.3,1786.7c56.9-30.7,114.1-61.7,171.8-93.2c26.7,12.4,53.3,24.9,79.8,37.6
		c35.4,16.9,70.6,34,105.7,51.3c3.8,61.5,7.6,123,11.4,184.5c-56.8,30-113.2,59.6-169.1,88.9c-60.6-31.1-121.6-61.6-183.1-91.3
		C1097.3,1905.2,1091.8,1846,1086.3,1786.7z M1135.9,2322c54.3-27.3,109.1-55,164.2-83.1c25.6,13.8,51.1,27.8,76.5,41.9
		c33.9,18.8,67.7,37.8,101.3,57.1c3.8,61.5,7.6,123,11.4,184.5c-54.2,26.7-108,53-161.4,78.8c-58.1-34.5-116.6-68.3-175.5-101.4
		C1146.9,2440.5,1141.4,2381.3,1135.9,2322z M3532,2513.1c-7.1,74.5-14.1,149-21.2,223.5c-59.3,29.4-118.2,58.5-176.6,87.2
		c-52.3-44.8-105.1-88.8-158.4-132.2c5.2-72.4,10.4-144.8,15.6-217.2c59.3-30.1,119.1-60.5,179.3-91.4
		c23.3,18.3,46.5,36.7,69.6,55.2C3470.9,2463,3501.5,2488,3532,2513.1z M3595.9,1840.2c-7.1,74.5-14.1,149-21.2,223.5
		c-62.2,32.6-123.9,64.9-185.2,96.7c-55.2-41.6-110.8-82.4-166.9-122.6c5.2-72.4,10.4-144.8,15.6-217.2
		c62.1-33.3,124.7-66.9,187.8-100.9c24.5,16.9,48.9,34,73.3,51.1C3531.6,1793.7,3563.8,1816.8,3595.9,1840.2z M3659.8,1167.2
		c-7.1,74.5-14.1,149-21.2,223.5c-65.1,35.8-129.7,71.2-193.8,106.3c-58-38.4-116.5-76.1-175.4-113.1
		c5.2-72.4,10.4-144.8,15.6-217.2c65-36.5,130.4-73.3,196.3-110.5c25.8,15.6,51.5,31.3,77.1,47.1
		C3592.3,1124.4,3626.1,1145.7,3659.8,1167.2z M3723.7,494.2c-7.1,74.5-14.1,149-21.2,223.5c-67.9,39-135.4,77.6-202.3,115.8
		c-60.8-35.2-122.1-69.7-183.9-103.5c5.2-72.4,10.4-144.8,15.6-217.2c67.8-39.7,136-79.7,204.8-120c27,14.2,53.8,28.5,80.6,42.9
		C3652.8,455.1,3688.3,474.5,3723.7,494.2z M3787.5-178.7c-7.1,74.5-14.1,149-21.2,223.5c-70.8,42.1-141.1,83.9-210.9,125.3
		c-63.7-32-127.8-63.3-192.4-93.9c5.2-72.4,10.4-144.8,15.6-217.2c70.6-42.9,141.7-86.1,213.3-129.6c28.2,12.8,56.3,25.8,84.3,38.8
		C3713.4-214.3,3750.5-196.6,3787.5-178.7z M3377.3-140.8c-5.2,72.4-10.4,144.8-15.5,217.2c-69.5,41.8-138.6,83.2-207.2,124.3
		c-64.3-30.2-129.1-59.7-194.3-88.5c3.3-70.3,6.7-140.5,10-210.8c69.5-42.5,139.4-85.4,209.9-128.6c28.3,12,56.6,24.2,84.7,36.5
		C3302.5-174.4,3339.9-157.7,3377.3-140.8z M2968.9-98.5c-3.3,70.2-6.6,140.5-10,210.7c-68.7,41.5-137,82.6-204.7,123.4
		c-65.4-28.4-131.2-56.1-197.4-83c1.5-68.1,3-136.2,4.5-204.3c68.6-42.2,137.6-84.8,207.2-127.7c28.8,11.2,57.6,22.6,86.3,34.1
		C2893-129.9,2931-114.3,2968.9-98.5z M2560-51.5c-1.5,68.1-3,136.2-4.5,204.3c-67.5,41.1-134.5,81.9-201.1,122.3
		c-66-26.6-132.3-52.5-199.1-77.6c-0.3-65.9-0.6-131.8-0.9-197.8c67.5-41.9,135.4-84.1,203.8-126.7c29,10.5,57.9,21.1,86.7,31.8
		C2483.5-80.9,2521.9-66.3,2560-51.5z M2153.2-0.2c0.3,65.9,0.6,131.8,0.9,197.7c-66.5,40.8-132.5,81.2-198.1,121.2
		c-66.7-24.8-133.9-48.8-201.4-72.1c-2.1-63.7-4.1-127.4-6.2-191.2c66.4-41.5,133.2-83.4,200.5-125.6c29.4,9.7,58.6,19.5,87.8,29.5
		C2075.7-27.4,2114.5-13.9,2153.2-0.2z M1747.1,55.7c2.1,63.7,4.1,127.4,6.2,191.1c-65.7,40.4-130.9,80.5-195.7,120.2
		c-67.7-22.9-135.8-45.1-204.3-66.5c-3.8-61.5-7.6-123-11.4-184.5c65.5-41.2,131.5-82.7,197.9-124.6c29.8,8.9,59.5,17.8,89.1,27
		C1668.4,30.6,1707.8,43,1747.1,55.7z M1340.6,116.2c3.8,61.5,7.6,123,11.4,184.5c-64.5,40-128.5,79.7-192.1,119
		c-68.2-21.1-136.9-41.4-205.9-61c-5.5-59.3-11-118.5-16.5-177.8c64.4-40.8,129.3-81.9,194.6-123.5c29.9,8.1,59.8,16.3,89.6,24.7
		C1261.5,93.2,1301.1,104.6,1340.6,116.2z M783.2,652c-6.3-58.1-12.7-116.3-19-174.4c62.6-38.9,125.7-78.2,189.2-117.8
		c69,19.6,137.6,40,205.9,61.1c4.7,60.4,9.3,120.8,14,181.1c-62.8,38.2-125.1,76-187,113.4c-28.8-9.4-57.7-18.6-86.7-27.7
		C860.9,675.5,822.1,663.7,783.2,652z M840.3,1177.2c-6.3-58.1-12.7-116.3-19-174.4C881.5,967.2,942,931.3,1003,895
		c66.5,23,132.6,46.7,198.3,71.1c4.7,60.4,9.3,120.8,14,181.1c-60.2,34.8-120.1,69.3-179.4,103.3c-27.8-10.8-55.7-21.5-83.6-32.1
		C915.1,1204.5,877.8,1190.7,840.3,1177.2z M897.5,1702.3c-6.3-58.1-12.7-116.3-19-174.4c57.6-32.1,115.7-64.7,174.2-97.6
		c64,26.3,127.5,53.4,190.7,81.2c4.7,60.4,9.3,120.8,14,181.1c-57.7,31.5-115,62.5-171.8,93.2c-26.7-12.3-53.4-24.4-80.2-36.4
		C969.5,1733.5,933.6,1717.8,897.5,1702.3z M954.7,2227.4c-6.3-58.1-12.7-116.3-19-174.4c55.1-28.7,110.7-57.9,166.6-87.4
		c61.5,29.7,122.5,60.1,183.1,91.3c4.7,60.4,9.3,120.8,14,181.1c-55.2,28.1-109.9,55.8-164.2,83.1c-25.6-13.7-51.3-27.3-77-40.7
		C1023.8,2262.5,989.3,2244.8,954.7,2227.4z M1202,3035.1c-5.5-59.3-11-118.5-16.5-177.8c51.8-23.9,103.9-48.3,156.5-73
		c57.2,35.6,114,72,170.3,109c3.8,61.5,7.6,123,11.4,184.5c-51.7,23.3-102.9,46.3-153.8,68.8
		C1314.4,3108.7,1258.4,3071.5,1202,3035.1z M1524.7,3077.9c-3.8-61.5-7.6-123-11.4-184.5c52.7-24.4,105.8-49.3,159.3-74.5
		c56.4,37.4,112.4,75.4,167.9,114.2c2.1,63.7,4.1,127.4,6.2,191.1c-52.6,23.8-104.7,47.3-156.5,70.3
		C1635.5,3154.9,1580.3,3116,1524.7,3077.9z M1847.7,3124.4c-2.1-63.7-4.1-127.4-6.2-191.2c53.3-25,106.9-50.3,161-76.1
		c55.3,39.1,110.1,78.8,164.4,119.3c0.3,65.9,0.6,131.8,0.9,197.7c-53.2,24.4-105.9,48.3-158.2,71.9
		C1956.1,3204.8,1902.1,3164.2,1847.7,3124.4z M2168.9,3174.3c-0.3-65.9-0.6-131.8-0.9-197.8c54-25.5,108.5-51.3,163.4-77.6
		c54.3,40.8,108.1,82.2,161.4,124.3c-1.5,68.1-3,136.2-4.5,204.3c-53.9,24.9-107.4,49.3-160.5,73.4
		C2275.3,3258.1,2222.4,3215.8,2168.9,3174.3z M2489.4,3227.7c1.5-68.1,3-136.2,4.5-204.3c55-25.9,110.4-52.2,166.3-78.9
		c53.4,42.5,106.4,85.6,158.9,129.5c-3.3,70.2-6.6,140.5-10,210.7c-54.9,25.3-109.3,50.3-163.3,74.8
		C2594.1,3314.9,2542,3271,2489.4,3227.7z M2810.1,3284.9c3.3-70.3,6.7-140.5,10-210.8c55.6-26.4,111.7-53.2,168.2-80.4
		c52.2,44.1,104,88.9,155.2,134.4c-5.2,72.4-10.4,144.8-15.5,217.2c-55.5,25.8-110.5,51.3-165.2,76.4
		C2912.3,3375.4,2861.4,3329.8,2810.1,3284.9z M3278.8,3487.3c-49.5-47.9-99.4-95.2-149.9-141.8c5.2-72.4,10.4-144.8,15.6-217.2
		c56.6-26.9,113.6-54.1,171.1-81.8c51.4,45.8,102.2,92.3,152.5,139.5c-7.1,74.5-14.1,149-21.2,223.5
		C3390.4,3435.9,3334.4,3461.8,3278.8,3487.3z M3641.8,3101.9c-58.3,28.1-116.1,55.8-173.4,83.2c-5.8-5.3-11.5-10.7-17.3-16
		c-44.7-41.7-89.9-82.9-135.4-123.5c6.1-73.5,12.2-146.9,18.4-220.4c58.4-28.7,117.3-57.8,176.6-87.2
		c52.2,45.1,104,90.8,155.2,137.2C3657.8,2950.8,3649.8,3026.3,3641.8,3101.9z M3714.3,2419.4c-61.1,31.2-121.8,62.1-182.1,92.6
		c-22.8-18.9-45.8-37.6-68.8-56.2c-30.7-24.8-61.5-49.4-92.5-73.8c6.1-73.5,12.3-146.9,18.4-220.4c61.3-31.9,123-64.1,185.2-96.7
		c55.1,41.9,109.7,84.5,163.9,127.8C3730.4,2268.3,3722.3,2343.9,3714.3,2419.4z M3786.8,1737c-64,34.4-127.6,68.4-190.7,102.1
		c-24.1-17.5-48.2-34.9-72.5-52.1c-32.3-23-64.8-45.8-97.4-68.3c6.1-73.5,12.3-146.9,18.4-220.4c64.1-35.1,128.7-70.5,193.8-106.3
		c58,38.7,115.5,78.2,172.5,118.3C3802.9,1585.9,3794.9,1661.4,3786.8,1737z M3859.4,1054.6c-66.9,37.5-133.4,74.7-199.3,111.6
		c-25.4-16.2-50.8-32.2-76.3-48.1c-33.9-21.1-67.9-42.1-102.1-62.8c6.1-73.5,12.2-146.9,18.4-220.4c67-38.2,134.4-76.8,202.3-115.8
		c60.9,35.6,121.2,71.8,181.2,108.8C3875.4,903.4,3867.4,979,3859.4,1054.6z M3931.9,372.1c-69.8,40.7-139.1,81-208,121.1
		c-26.5-14.8-53.2-29.4-79.9-44c-35.6-19.4-71.3-38.5-107.2-57.4c6.1-73.5,12.2-146.9,18.4-220.4c69.8-41.4,140.1-83.2,210.9-125.3
		c63.7,32.4,127,65.5,189.8,99.3C3948,221,3939.9,296.6,3931.9,372.1z M4028.5-537c-8,75.6-16.1,151.1-24.1,226.7
		c-72.7,43.8-144.9,87.4-216.6,130.5c-27.8-13.4-55.6-26.7-83.6-39.9c-37.2-17.5-74.6-34.9-112-51.9c6.1-73.5,12.3-146.9,18.4-220.4
		c72.6-44.6,145.8-89.6,219.5-134.8C3896.7-597.6,3962.8-567.7,4028.5-537z M3609.3-491.8c-6.1,73.4-12.2,146.9-18.4,220.3
		c-71.5,43.5-142.5,86.7-213,129.6c-28-12.6-56-25.2-84.1-37.6c-37.6-16.5-75.3-32.8-113.1-48.9c4.3-71.3,8.5-142.7,12.8-214
		c71.4-44.3,143.2-88.9,215.6-133.9C3476.2-548.8,3543-520.7,3609.3-491.8z M3192.2-442.2c-4.2,71.3-8.5,142.6-12.7,214
		c-70.5,43.2-140.5,86.1-210.1,128.7c-28.3-11.9-56.7-23.6-85.1-35.3c-37.9-15.5-76-30.7-114.3-45.8c2.4-69.2,4.8-138.4,7.2-207.5
		c70.3-44,141.1-88.3,212.4-133C3057.5-495.5,3125.1-469.2,3192.2-442.2z M2775.9-387.9c-2.4,69.2-4.8,138.3-7.2,207.5
		c-69.6,42.9-138.6,85.5-207.2,127.7c-28.8-11.1-57.7-22-86.7-32.8c-38.6-14.4-77.3-28.6-116.1-42.5c0.6-67,1.2-134,1.8-201
		c69.5-43.7,139.4-87.7,209.8-132.1C2639.3-437.5,2707.8-413.1,2775.9-387.9z M2359.2-328.9c-0.6,67-1.2,134-1.8,201
		C2289-85.3,2221.1-43.1,2153.7-1.2c-29-10.3-58.1-20.5-87.2-30.5c-38.9-13.4-77.9-26.5-117-39.4c-1.2-64.8-2.4-129.6-3.6-194.5
		c68.2-43.3,136.9-87,206-131.1C2221.5-374.8,2290.5-352.2,2359.2-328.9z M1944.7-265.4c1.2,64.8,2.4,129.6,3.6,194.4
		c-67.4,42.3-134.4,84.1-200.9,125.7c-29.5-9.5-59-18.8-88.6-28c-39.5-12.3-79.1-24.4-118.9-36.2c-2.9-62.6-5.9-125.2-8.8-187.8
		c67.4-43,135.2-86.4,203.6-130.2C1805.1-307.6,1875.1-286.9,1944.7-265.4z M1529.8-197.1c2.9,62.6,5.9,125.2,8.8,187.8
		c-66.3,41.9-132.1,83.4-197.4,124.5c-29.6-8.7-59.4-17.3-89.2-25.8c-39.7-11.3-79.6-22.3-119.5-33c-4.6-60.4-9.3-120.8-13.9-181.2
		c66.1-42.6,132.7-85.6,199.8-129C1389.2-235.6,1459.7-216.7,1529.8-197.1z M707-47.5c65.1-42.3,130.7-84.9,196.7-127.9
		c71.5,16.2,142.7,33.2,213.5,51c4.7,60.4,9.3,120.8,14,181.1c-65.3,41.5-130.2,82.7-194.7,123.5c-29.9-7.9-59.9-15.7-89.9-23.4
		c-40.1-10.2-80.3-20.2-120.6-29.9C719.7,68.7,713.4,10.6,707-47.5z M534,250.1c63.4-40.4,127.2-81.2,191.4-122.3
		c30.3,7.3,60.5,14.7,90.6,22.3c40.2,10.1,80.2,20.4,120.2,30.9c5.5,59.3,11,118.5,16.5,177.8c-63.5,39.7-126.6,78.9-189.2,117.8
		c-69-19.2-138.3-37.7-208-55.5C548.3,364.2,541.1,307.2,534,250.1z M598.6,765.1c60.9-37,122.2-74.4,184-112.1
		c29.2,8.7,58.3,17.6,87.4,26.6c38.7,12,77.4,24.2,115.8,36.7c5.5,59.3,11,118.5,16.5,177.8c-61,36.3-121.6,72.2-181.7,107.7
		c-66.5-22.6-133.3-44.5-200.6-65.6C612.9,879.1,605.8,822.1,598.6,765.1z M663.3,1280c58.4-33.6,117.3-67.6,176.5-102
		c28.2,10.2,56.3,20.5,84.3,31c37.3,13.9,74.4,28.1,111.4,42.4c5.5,59.3,11,118.5,16.5,177.8c-58.5,32.9-116.5,65.5-174.2,97.6
		c-64-26-128.3-51.3-193.1-75.8C677.6,1394,670.4,1337,663.3,1280z M727.9,1795c55.9-30.2,112.3-60.8,169.1-91.8
		c27.1,11.6,54.1,23.4,81,35.3c35.9,15.9,71.6,32,107.2,48.3c5.5,59.3,11,118.5,16.5,177.8c-56,29.6-111.5,58.7-166.6,87.5
		c-61.5-29.4-123.4-58-185.7-86C742.2,1909,735,1852,727.9,1795z M792.5,2309.9c53.5-26.8,107.3-54,161.6-81.7
		c26,13.1,51.9,26.3,77.7,39.6c34.4,17.8,68.8,35.8,102.9,54.1c5.5,59.3,11,118.5,16.5,177.8c-53.4,26.2-106.5,52-159.1,77.3
		c-59-32.8-118.4-64.8-178.2-96.1C806.8,2423.9,799.7,2366.9,792.5,2309.9z"/>
</g>
</svg>
