<?xml version="1.0" encoding="utf-8"?>
<!-- Generator: Adobe Illustrator 19.2.1, SVG Export Plug-In . SVG Version: 6.00 Build 0)  -->
<svg version="1.1" id="Laag_1" xmlns="http://www.w3.org/2000/svg" xmlns:xlink="http://www.w3.org/1999/xlink" x="0px" y="0px"
	 viewBox="0 0 200 19.2" style="enable-background:new 0 0 200 19.2;" xml:space="preserve">
<style type="text/css">
	.st0{fill:#FFFFFF;}
</style>
<g>
	<path class="st0" d="M25.9,11h-7.3c0.3,1.2,1.2,1.9,2.5,1.9c0.9,0,1.8-0.4,2.5-1.1l1.8,1.7c-1.1,1.2-2.6,1.8-4.5,1.8
		c-3.4,0-5.5-2.1-5.5-5.3c0-3.2,2.2-5.3,5.4-5.3C24.4,4.8,26.2,7.2,25.9,11z M22.7,9.2c0-1.3-0.8-2.1-2-2.1c-1.2,0-2,0.8-2.2,2.1
		H22.7z"/>
	<path class="st0" d="M37.6,11h-7.3c0.3,1.2,1.2,1.9,2.5,1.9c0.9,0,1.8-0.4,2.5-1.1l1.8,1.7c-1.1,1.2-2.6,1.8-4.5,1.8
		c-3.4,0-5.5-2.1-5.5-5.3c0-3.2,2.2-5.3,5.4-5.3C36,4.8,37.8,7.2,37.6,11z M34.4,9.2c0-1.3-0.8-2.1-2-2.1c-1.2,0-2,0.8-2.2,2.1H34.4
		z"/>
	<path class="st0" d="M50,8.7v6.6h-3.3V9.6c0-1.2-0.7-2-1.8-2c-1.2,0-2,0.9-2.1,2.1v5.5h-3.3V4.9h3.3v1.7c0.7-1.2,1.9-1.8,3.5-1.9
		C48.5,4.7,50,6.3,50,8.7z"/>
	<path class="st0" d="M54.7,15.3L50.8,4.9h3.4l2.2,7.4l2.3-7.4H62l-3.9,10.4H54.7z"/>
	<path class="st0" d="M73.4,10.1c0,3.2-2.3,5.3-5.7,5.3c-3.4,0-5.7-2.1-5.7-5.3c0-3.2,2.3-5.3,5.7-5.3C71.1,4.8,73.4,6.9,73.4,10.1z
		 M65.4,10.1c0,1.6,0.9,2.7,2.3,2.7c1.4,0,2.3-1.1,2.3-2.7c0-1.6-0.9-2.7-2.3-2.7C66.3,7.4,65.4,8.5,65.4,10.1z"/>
	<path class="st0" d="M85.3,15.3H82v-1.7c-0.7,1.2-1.9,1.9-3.4,1.9c-2.3,0-3.7-1.5-3.7-4V4.9h3.3v5.6c0,1.2,0.7,2,1.7,2
		c1.3,0,2-1.1,2-2.5V4.9h3.3V15.3z"/>
	<path class="st0" d="M98.5,15.3h-3.3v-1.4c-0.7,1-1.8,1.5-3.1,1.5c-2.9,0-4.9-2.2-4.9-5.4c0-3.2,1.9-5.3,4.8-5.3
		c1.4,0,2.5,0.5,3.2,1.5V1h3.3V15.3z M95.1,10.1c0-1.6-0.9-2.7-2.3-2.7s-2.3,1.1-2.3,2.7c0,1.6,0.9,2.7,2.3,2.7S95.1,11.7,95.1,10.1
		z"/>
	<path class="st0" d="M104.7,1.9c0,1-0.7,1.8-1.8,1.8c-1,0-1.8-0.7-1.8-1.8c0-1,0.7-1.8,1.8-1.8C103.9,0.1,104.7,0.9,104.7,1.9z
		 M101.2,15.3V4.9h3.3v10.4H101.2z"/>
	<path class="st0" d="M117.2,14.3c0,3-2.3,4.8-5.6,4.8c-1.8,0-3.5-0.6-4.6-1.4l1.2-2.3c0.9,0.7,2.1,1,3.2,1c1.6,0,2.6-0.8,2.6-2.1
		v-1.1c-0.7,0.9-1.7,1.4-3,1.4c-2.6,0-4.5-2-4.5-5c0-3,1.8-4.9,4.4-4.9c1.3,0,2.4,0.5,3.1,1.4V4.9h3.3V14.3z M113.9,9.8
		c0-1.5-0.9-2.5-2.2-2.5c-1.3,0-2.2,1-2.2,2.5c0,1.5,0.9,2.5,2.2,2.5C113,12.3,113.9,11.3,113.9,9.8z"/>
	<path class="st0" d="M122.4,13.8c0,1-0.7,1.6-1.6,1.6c-0.9,0-1.6-0.7-1.6-1.6c0-0.9,0.7-1.6,1.6-1.6
		C121.7,12.2,122.4,12.9,122.4,13.8z"/>
	<path class="st0" d="M134.9,10.1c0,3.2-2.3,5.3-5.7,5.3c-3.4,0-5.7-2.1-5.7-5.3c0-3.2,2.3-5.3,5.7-5.3
		C132.6,4.8,134.9,6.9,134.9,10.1z M126.9,10.1c0,1.6,0.9,2.7,2.3,2.7c1.4,0,2.3-1.1,2.3-2.7c0-1.6-0.9-2.7-2.3-2.7
		C127.9,7.4,126.9,8.5,126.9,10.1z"/>
	<path class="st0" d="M147.3,8.7v6.6H144V9.6c0-1.2-0.7-2-1.8-2c-1.2,0-2,0.9-2.1,2.1v5.5h-3.3V4.9h3.3v1.7c0.7-1.2,1.9-1.8,3.5-1.9
		C145.8,4.7,147.3,6.3,147.3,8.7z"/>
	<path class="st0" d="M149.8,15.3V1h3.3v14.3H149.8z"/>
	<path class="st0" d="M159.4,1.9c0,1-0.7,1.8-1.8,1.8c-1,0-1.8-0.7-1.8-1.8c0-1,0.7-1.8,1.8-1.8C158.6,0.1,159.4,0.9,159.4,1.9z
		 M155.9,15.3V4.9h3.3v10.4H155.9z"/>
	<path class="st0" d="M172.5,8.7v6.6h-3.3V9.6c0-1.2-0.7-2-1.8-2c-1.2,0-2,0.9-2.1,2.1v5.5h-3.3V4.9h3.3v1.7
		c0.7-1.2,1.9-1.8,3.5-1.9C171,4.7,172.5,6.3,172.5,8.7z"/>
	<path class="st0" d="M184.7,11h-7.3c0.3,1.2,1.2,1.9,2.5,1.9c0.9,0,1.8-0.4,2.5-1.1l1.8,1.7c-1.1,1.2-2.6,1.8-4.5,1.8
		c-3.4,0-5.5-2.1-5.5-5.3c0-3.2,2.2-5.3,5.4-5.3C183.1,4.8,185,7.2,184.7,11z M181.5,9.2c0-1.3-0.8-2.1-2-2.1c-1.2,0-2,0.8-2.2,2.1
		H181.5z"/>
</g>
</svg>
