<?xml version="1.0" encoding="utf-8"?>
<!-- Generator: Adobe Illustrator 19.1.0, SVG Export Plug-In . SVG Version: 6.00 Build 0)  -->
<svg version="1.1" id="Laag_1" xmlns="http://www.w3.org/2000/svg" xmlns:xlink="http://www.w3.org/1999/xlink" x="0px" y="0px"
	 viewBox="0 0 408.195 103.106" style="enable-background:new 0 0 408.195 103.106;" xml:space="preserve">
<style type="text/css">
	.st0{fill:#FFFFFF;}
</style>
<path class="st0" d="M0,9.801C0,4.601,4.4,0,10,0c5.4,0,9.801,4.601,9.801,9.801c0,5.4-4.4,10-9.801,10C4.4,19.801,0,15.201,0,9.801
	z M0.2,25.302h19.301v51.703H0.2V25.302z M62,77.005l-8.301-12l-8.4,12H25.398l18.401-26.402L26.298,25.302h20.401L54.1,36.002
	l7.4-10.701h19.901L64,50.303l18.401,26.702H62z M104.596,51.104c0-14.701,13.301-27.002,29.202-27.002
	c15.801,0,29.102,12.301,29.102,27.002c0,14.701-13.301,27.102-29.102,27.102C117.897,78.205,104.596,65.804,104.596,51.104z
	 M144.898,51.104c0-6-5.1-11.001-11.101-11.001c-6.1,0-11.201,5-11.201,11.001c0,6,5.101,11.101,11.201,11.101
	C139.798,62.204,144.898,57.104,144.898,51.104z M223.499,44.103v32.902h-18.401V48.603c0-5-3.2-8.5-7.801-8.5
	c-4.3,0-7.4,3.3-7.4,7.9v29.002h-19.301V25.302h19.301v5.2c3.2-4,8.401-6.4,14.602-6.4
	C215.598,24.102,223.499,32.402,223.499,44.103z M233.794,7.101h19.301v69.904h-19.301V7.101z M263.893,9.801
	c0-5.2,4.4-9.801,10.001-9.801c5.4,0,9.801,4.601,9.801,9.801c0,5.4-4.4,10-9.801,10C268.293,19.801,263.893,15.201,263.893,9.801z
	 M264.093,25.302h19.302v51.703h-19.302V25.302z M346.996,44.103v32.902h-18.401V48.603c0-5-3.2-8.5-7.801-8.5
	c-4.3,0-7.4,3.3-7.4,7.9v29.002h-19.301V25.302h19.301v5.2c3.2-4,8.4-6.4,14.601-6.4C339.095,24.102,346.996,32.402,346.996,44.103z
	 M393.294,59.504l10.601,10.701c-4.601,4.7-13.401,8-21.302,8c-16.501,0-28.102-11.301-28.102-27.202
	c0-15.801,11.301-26.902,27.302-26.902c16.601,0,26.401,11.701,26.401,31.602h-36.603c1.501,4.9,5.301,8.101,10.201,8.101
	C385.694,63.804,389.894,62.204,393.294,59.504z M371.893,45.603h18.801c-1.4-4.3-4.7-7.101-8.9-7.101
	C377.193,38.502,373.593,41.303,371.893,45.603z M82.402,103.106V85.015H0.2v18.092H82.402z"/>
</svg>
