<?xml version="1.0" encoding="utf-8"?>
<!-- Generator: Adobe Illustrator 19.2.1, SVG Export Plug-In . SVG Version: 6.00 Build 0)  -->
<svg version="1.1" id="Laag_1" xmlns="http://www.w3.org/2000/svg" xmlns:xlink="http://www.w3.org/1999/xlink" x="0px" y="0px"
	 viewBox="0 0 300 180" style="enable-background:new 0 0 300 180;" xml:space="preserve">
<style type="text/css">
	.st0{fill:#ffffff;}
</style>
<path class="st0" d="M27.2,126.5v8.1H1.4V96.5h9.7v30H27.2z M70.5,115.5c0,11.1-8.8,19.5-20.6,19.5c-11.8,0-20.6-8.4-20.6-19.5
	c0-11.1,8.8-19.3,20.6-19.3C61.7,96.2,70.5,104.4,70.5,115.5z M39.3,115.5c0,6.4,5,11.4,10.8,11.4c5.9,0,10.6-5,10.6-11.4
	s-4.7-11.3-10.6-11.3C44.1,104.3,39.3,109.1,39.3,115.5z M108.6,115.2V130c-4.1,2.9-10.5,5-15.8,5c-11.6,0-20.3-8.4-20.3-19.5
	c0-11,9-19.4,21-19.4c5.7,0,11.6,2.2,15.6,5.7l-5.4,6.6c-2.8-2.6-6.6-4.1-10.2-4.1c-6.3,0-11,4.9-11,11.3c0,6.5,4.8,11.4,11.2,11.4
	c2,0,4.5-0.7,6.7-1.8v-9.8H108.6z M154.1,115.5c0,11.1-8.8,19.5-20.6,19.5c-11.8,0-20.6-8.4-20.6-19.5c0-11.1,8.8-19.3,20.6-19.3
	C145.2,96.2,154.1,104.4,154.1,115.5z M122.8,115.5c0,6.4,5,11.4,10.8,11.4c5.9,0,10.6-5,10.6-11.4s-4.7-11.3-10.6-11.3
	C127.7,104.3,122.8,109.1,122.8,115.5z M154.1,83.1H1.4v8.2h152.7V83.1z M154.1,141H1.4v8.2h152.7V141z M84.6,77.2l6.9-12l-6.9-12
	H70.8l-6.9,12l6.9,12H84.6z M84.6,48.7l6.9-12l-6.9-12H70.8l-6.9,12l6.9,12H84.6z M115.3,77.2l6.9-12l-6.9-12h-13.8l-6.9,12l6.9,12
	H115.3z M53.9,77.2l6.9-12l-6.9-12H40.1l-6.9,12l6.9,12H53.9z"/>
</svg>
